<?xml version="1.0" encoding="UTF-8" standalone="no"?>
<svg width="23px" height="23px" viewBox="0 0 23 23" version="1.1" xmlns="http://www.w3.org/2000/svg" xmlns:xlink="http://www.w3.org/1999/xlink">
    <!-- Generator: Sketch 50.2 (55047) - http://www.bohemiancoding.com/sketch -->
    <title>ic_add</title>
    <desc>Created with Sketch.</desc>
    <defs></defs>
    <g id="Page-1" stroke="none" stroke-width="1" fill="none" fill-rule="evenodd">
        <g id="Manual" transform="translate(-139.000000, -3598.000000)" fill="#696969">
            <g id="ic_add" transform="translate(135.000000, 3594.000000)">
                <path d="M16.6868549,15.5617076 L18.5711432,17.4457712 C18.8850604,17.7642582 18.8850604,18.2756877 18.5711432,18.5895768 C18.4140725,18.7465774 18.2077103,18.8274328 18.0014042,18.8274328 C17.7948178,18.8274328 17.5884556,18.7465774 17.4316653,18.5895768 L15.5473769,16.7056815 L13.6630886,18.5895768 C13.5062982,18.7465774 13.2999361,18.8274328 13.0933496,18.8274328 C12.8870435,18.8274328 12.6806814,18.7465774 12.5236106,18.5895768 C12.2096934,18.2710898 12.2096934,17.7596603 12.5236106,17.4457712 L14.4078989,15.5617076 L12.5236106,13.6778123 C12.2096934,13.359101 12.2096934,12.8478958 12.5236106,12.5338385 C12.8423504,12.2199494 13.3536014,12.2199494 13.6676869,12.5338385 L15.5517509,14.417902 L17.4360392,12.5338385 C17.7544987,12.2199494 18.265974,12.2199494 18.5798912,12.5338385 C18.898631,12.8478958 18.898631,13.359101 18.5711432,13.6778123 L16.6868549,15.5617076 Z M23.3352491,7.77890636 C25.4124972,9.85596854 26.5563492,12.6190113 26.5563492,15.557278 C26.5563492,18.4953764 25.4124972,21.2586435 23.3352491,23.3354814 C21.2582252,25.4123193 18.4947107,26.5563492 15.5563492,26.5563492 C12.6180437,26.5563492 9.85447317,25.4123193 7.77744931,23.3354814 C5.70020114,21.2586435 4.55634919,18.4953764 4.55634919,15.557278 C4.55634919,12.6190113 5.70020114,9.85596854 7.77744931,7.77890636 C10.4152399,5.14135195 14.1701899,4.0245168 17.8217907,4.79595058 C18.2570017,4.88572129 18.5351981,5.31635157 18.4454193,5.75135544 C18.3555845,6.18652753 17.9249157,6.46469899 17.4899289,6.37492828 C14.3719538,5.72001139 11.1644242,6.67541626 8.91698336,8.92288019 C5.25618605,12.5830694 5.25618605,18.535692 8.91698336,22.1961054 C10.6934363,23.9680257 13.0486565,24.9414296 15.5563492,24.9414296 C18.0640419,24.9414296 20.4238604,23.9634278 22.1957711,22.1917318 C25.6634964,18.7242609 25.8475401,13.1976707 22.7431355,9.51494076 L20.8275564,11.4303484 C20.5090409,11.7444057 19.9975655,11.7444057 19.6837044,11.4303484 C19.3695629,11.1118614 19.3695629,10.6004319 19.6837044,10.2865427 L22.1957711,7.77890636 C22.5098565,7.46501725 23.0213319,7.46501725 23.3352491,7.77890636 Z" transform="translate(15.556349, 15.556349) rotate(-315.000000) translate(-15.556349, -15.556349) "></path>
            </g>
        </g>
    </g>
</svg>