<?xml version="1.0" encoding="UTF-8" standalone="no"?>
<svg width="22px" height="22px" viewBox="0 0 22 22" version="1.1" xmlns="http://www.w3.org/2000/svg" xmlns:xlink="http://www.w3.org/1999/xlink">
    <!-- Generator: Sketch 50.2 (55047) - http://www.bohemiancoding.com/sketch -->
    <title>Alert</title>
    <desc>Created with Sketch.</desc>
    <defs>
        <polygon id="path-1" points="2.41570541e-05 0.0393052351 21.9606948 0.0393052351 21.9606948 22 2.41570541e-05 22"></polygon>
    </defs>
    <g id="Page-1" stroke="none" stroke-width="1" fill="none" fill-rule="evenodd">
        <g id="Manual" transform="translate(-267.000000, -3598.000000)">
            <g id="Alert" transform="translate(267.000000, 3598.000000)">
                <g id="Group">
                    <g id="Group-3">
                        <mask id="mask-2" fill="white">
                            <use xlink:href="#path-1"></use>
                        </mask>
                        <g id="Clip-2"></g>
                        <path d="M17.1917541,17.2309144 C13.7609693,20.6612161 8.19904911,20.6612161 4.76874743,17.2309144 C1.3379626,13.8001295 1.3379626,8.23820941 4.76874743,4.80790772 C8.19904911,1.37760603 13.7609693,1.37760603 17.1917541,4.80790772 C20.6220558,8.23869255 20.6220558,13.8006127 17.1917541,17.2309144 M3.73430415,3.77346444 C-0.266958062,7.77472665 -0.266958062,14.262407 3.73430415,18.2641201 C7.7360172,22.2658331 14.2236976,22.2658331 18.2254106,18.2641201 C22.2266728,14.262407 22.2266728,7.77472665 18.2254106,3.77346444 C14.2232467,-0.227797769 7.7360172,-0.227797769 3.73430415,3.77346444" id="Fill-1" fill="#696969" mask="url(#mask-2)"></path>
                    </g>
                    <path d="M10.0466062,4.72544228 C10.3027983,4.43743006 10.6431272,4.29268293 11.063339,4.29268293 C11.5719418,4.29268293 11.9127434,4.4779395 12.084326,4.84548853 C12.2568538,5.21402561 12.3414634,5.74460043 12.3414634,6.43820103 C12.3414634,6.84724754 12.3216109,7.26123422 12.2790698,7.68312518 L11.8985631,12.2597035 C11.8569673,12.8050989 11.7676309,13.2225437 11.6324447,13.51352 C11.4944224,13.8049903 11.2713178,13.9512195 10.9579316,13.9512195 C10.6360371,13.9512195 10.4152959,13.8094365 10.2900359,13.5273525 C10.1652486,13.2462565 10.0768576,12.8169553 10.0239176,12.2409308 L9.73841936,7.79427913 C9.6854793,6.92727838 9.65853659,6.30531031 9.65853659,5.92788093 C9.65900926,5.4141027 9.78757799,5.01296047 10.0466062,4.72544228" id="Fill-4" fill="#696969"></path>
                    <path d="M11.9436078,17.3476511 C11.6756931,17.5874284 11.3666698,17.7073171 11.0094503,17.7073171 C10.6479781,17.7073171 10.3332847,17.5888613 10.0639524,17.3519499 C9.79462023,17.1159937 9.65853659,16.785464 9.65853659,16.3608384 C9.65853659,15.9901866 9.78753254,15.6739862 10.0455244,15.4131925 C10.3030438,15.1533541 10.6191548,15.0243902 10.9929123,15.0243902 C11.3666698,15.0243902 11.6823083,15.1538318 11.9473879,15.4131925 C12.2115224,15.6739862 12.3414634,15.9906642 12.3414634,16.3608384 C12.3414634,16.7797323 12.2096324,17.1083514 11.9436078,17.3476511" id="Fill-6" fill="#696969"></path>
                </g>
            </g>
        </g>
    </g>
</svg>