<?xml version="1.0" encoding="UTF-8" standalone="no"?>
<svg width="38px" height="29px" viewBox="0 0 38 29" version="1.1" xmlns="http://www.w3.org/2000/svg" xmlns:xlink="http://www.w3.org/1999/xlink">
    <!-- Generator: Sketch 50.2 (55047) - http://www.bohemiancoding.com/sketch -->
    <title>icon/back</title>
    <desc>Created with Sketch.</desc>
    <defs>
        <path d="M20.3119333,9.13350843 L4.84441005,9.13350843 L10.8202007,2.67253069 C11.37175,2.07562786 11.37175,1.10376945 10.8202007,0.498662134 C10.2681587,-0.0978144955 9.3693413,-0.0978144955 8.80961288,0.498662134 L0.413785146,9.5855009 C-0.137764142,10.181871 -0.137764142,11.1538359 0.413785146,11.7589433 L8.80961288,20.8370448 C9.08563388,21.1354962 9.44827483,21.2891438 9.81091578,21.2891438 C10.1734582,21.2891438 10.5364933,21.1354962 10.8121201,20.8370448 C11.3640636,20.2406747 11.3640636,19.2688163 10.8121201,18.6636024 L4.84441005,12.2021985 L20.3119333,12.2021985 C21.0922026,12.2021985 21.7308646,11.5117432 21.7308646,10.6680666 C21.7308646,9.82396369 21.0922026,9.13350843 20.3119333,9.13350843 L20.3119333,9.13350843 Z" id="path-1"></path>
        <filter x="-32.2%" y="-23.5%" width="164.4%" height="165.9%" filterUnits="objectBoundingBox" id="filter-2">
            <feOffset dx="0" dy="2" in="SourceAlpha" result="shadowOffsetOuter1"></feOffset>
            <feGaussianBlur stdDeviation="2" in="shadowOffsetOuter1" result="shadowBlurOuter1"></feGaussianBlur>
            <feColorMatrix values="0 0 0 0 0   0 0 0 0 0   0 0 0 0 0  0 0 0 0.24 0" type="matrix" in="shadowBlurOuter1"></feColorMatrix>
        </filter>
        <path d="M29.204323,9.13350843 L25.9562229,9.13350843 C25.1759536,9.13350843 24.5373902,9.82396369 24.5373902,10.6680666 C24.5373902,11.5117432 25.1759536,12.2021985 25.9562229,12.2021985 L29.204323,12.2021985 C29.9926728,12.2021985 30.6236484,11.5117432 30.6236484,10.6680666 C30.6236484,9.82396369 29.9849864,9.13350843 29.204323,9.13350843 L29.204323,9.13350843 Z" id="path-3"></path>
        <filter x="-115.0%" y="-162.9%" width="330.0%" height="556.2%" filterUnits="objectBoundingBox" id="filter-4">
            <feOffset dx="0" dy="2" in="SourceAlpha" result="shadowOffsetOuter1"></feOffset>
            <feGaussianBlur stdDeviation="2" in="shadowOffsetOuter1" result="shadowBlurOuter1"></feGaussianBlur>
            <feColorMatrix values="0 0 0 0 0   0 0 0 0 0   0 0 0 0 0  0 0 0 0.24 0" type="matrix" in="shadowBlurOuter1"></feColorMatrix>
        </filter>
    </defs>
    <g id="Page-1" stroke="none" stroke-width="1" fill="none" fill-rule="evenodd">
        <g id="Manual" transform="translate(-498.000000, -3596.000000)">
            <g id="icon/back" transform="translate(502.000000, 3598.000000)">
                <g id="back" transform="translate(0.000000, 0.130349)">
                    <g id="Fill-1">
                        <use fill="black" fill-opacity="1" filter="url(#filter-2)" xlink:href="#path-1"></use>
                        <use fill="#696969" fill-rule="evenodd" xlink:href="#path-1"></use>
                    </g>
                    <g id="Fill-4">
                        <use fill="black" fill-opacity="1" filter="url(#filter-4)" xlink:href="#path-3"></use>
                        <use fill="#696969" fill-rule="evenodd" xlink:href="#path-3"></use>
                    </g>
                </g>
            </g>
        </g>
    </g>
</svg>