<?xml version="1.0" encoding="UTF-8" standalone="no"?>
<svg width="28px" height="28px" viewBox="0 0 28 28" version="1.1" xmlns="http://www.w3.org/2000/svg" xmlns:xlink="http://www.w3.org/1999/xlink">
    <!-- Generator: Sketch 50.2 (55047) - http://www.bohemiancoding.com/sketch -->
    <title>icon/Close</title>
    <desc>Created with Sketch.</desc>
    <defs>
        <path d="M9.32319029,10.1372751 L0.171524082,0.985405585 C0.0557091346,0.873987316 -3.90798505e-14,0.72380321 -3.90798505e-14,0.578015783 C-3.90798505e-14,0.432067501 0.059891341,0.282097867 0.171524082,0.170465126 C0.398757299,-0.0568217087 0.76341353,-0.0568217087 0.990646747,0.170465126 L10.2345562,9.4141065 L19.4781976,0.170465126 C19.7056453,-0.0568217087 20.070087,-0.0568217087 20.2975347,0.170465126 C20.5248215,0.397912815 20.5248215,0.762354574 20.2975347,0.989802263 L11.1448095,10.1423241 L20.2964758,19.2941936 C20.4122907,19.4056119 20.4679998,19.555796 20.4679998,19.7015834 C20.4679998,19.8475317 20.4081085,19.9975013 20.2964758,20.1091341 C20.0692425,20.3364209 19.7045863,20.3364209 19.4773531,20.1091341 L10.2334436,10.8654927 L0.989802263,20.1091341 C0.762354574,20.3364209 0.397912815,20.3364209 0.170465126,20.1091341 C-0.0568217087,19.8816864 -0.0568217087,19.5172446 0.170465126,19.2897969 L9.32319029,10.1372751 Z" id="path-1"></path>
        <filter x="-34.2%" y="-24.7%" width="168.4%" height="169.0%" filterUnits="objectBoundingBox" id="filter-2">
            <feOffset dx="0" dy="2" in="SourceAlpha" result="shadowOffsetOuter1"></feOffset>
            <feGaussianBlur stdDeviation="2" in="shadowOffsetOuter1" result="shadowBlurOuter1"></feGaussianBlur>
            <feColorMatrix values="0 0 0 0 0   0 0 0 0 0   0 0 0 0 0  0 0 0 0.24 0" type="matrix" in="shadowBlurOuter1"></feColorMatrix>
        </filter>
    </defs>
    <g id="Page-1" stroke="none" stroke-width="1" fill="none" fill-rule="evenodd">
        <g id="Manual" transform="translate(-551.000000, -3597.000000)">
            <g id="icon/Close" transform="translate(555.000000, 3599.000000)">
                <g id="close">
                    <use fill="black" fill-opacity="1" filter="url(#filter-2)" xlink:href="#path-1"></use>
                    <use fill="#696969" fill-rule="evenodd" xlink:href="#path-1"></use>
                </g>
            </g>
        </g>
    </g>
</svg>