<?xml version="1.0" encoding="UTF-8" standalone="no"?>
<svg width="23px" height="22px" viewBox="0 0 23 22" version="1.1" xmlns="http://www.w3.org/2000/svg" xmlns:xlink="http://www.w3.org/1999/xlink">
    <!-- Generator: Sketch 50.2 (55047) - http://www.bohemiancoding.com/sketch -->
    <title>ic_edit_white</title>
    <desc>Created with Sketch.</desc>
    <defs></defs>
    <g id="Page-1" stroke="none" stroke-width="1" fill="none" fill-rule="evenodd">
        <g id="Manual" transform="translate(-100.000000, -3599.000000)" fill="#696969">
            <g id="ic_edit_white" transform="translate(100.000000, 3599.000000)">
                <path d="M18.1159456,3.94580434 C18.4337252,4.26701392 18.4337252,4.78273657 18.1159456,5.0995344 L5.60912464,17.5610408 C5.45012135,17.719468 5.2412202,17.8008027 5.03231905,17.8008027 C4.82347467,17.8008027 4.61434645,17.719468 4.45557022,17.5610408 C4.1376204,17.2398312 4.1376204,16.7239389 4.45557022,16.4070845 L16.962448,3.94580434 C17.2801707,3.62894995 17.797939,3.62894995 18.1159456,3.94580434 Z M20.7633703,1.45712295 C21.6126557,2.29869319 22.0805261,3.425274 22.0805261,4.61989762 C22.0805261,5.81452125 21.6126557,6.93669031 20.7633703,7.78289854 L20.3229749,8.22164176 C20.0005405,8.53849615 19.4827722,8.53849615 19.1647656,8.22164176 C18.8470429,7.90043218 18.8470429,7.38453984 19.1647656,7.06791169 L19.6053881,6.62888567 C20.1458063,6.09048208 20.440936,5.37549523 20.440936,4.61548587 C20.440936,3.85519371 20.1458063,3.14026342 19.6053881,2.60180327 L19.4692618,2.46617013 C18.9286165,1.92748373 18.2113135,1.6334234 17.4482567,1.6334234 C16.6852566,1.6334234 15.9678969,1.92748373 15.4273084,2.46617013 L2.24831387,15.5927201 L1.73985528,20.2669162 L6.43087818,19.7556619 L16.6490963,9.57005458 C16.9715306,9.253483 17.4890719,9.253483 17.8070785,9.57005458 C18.1250283,9.89132072 18.1250283,10.4072131 17.8070785,10.7240675 L7.38018632,21.1131245 C7.24848776,21.2444024 7.07591725,21.3303185 6.88966598,21.348418 L0.904137148,21.995362 C0.876832406,22 0.845156634,22 0.817851891,22 C0.604522945,22 0.395678563,21.9140274 0.241103065,21.7600685 C0.0641615211,21.583768 -0.0223508028,21.3393682 0.00495393986,21.095025 L0.654420802,15.1311828 C0.677070682,14.9455498 0.758871376,14.7736611 0.890626694,14.6424397 L14.2737539,1.31215726 C15.1186115,0.465949028 16.249289,0 17.4482567,0 C18.6472244,0 19.7734741,0.465949028 20.6227594,1.31215726 L20.7633703,1.45712295 Z"></path>
            </g>
        </g>
    </g>
</svg>