<?xml version="1.0" encoding="UTF-8" standalone="no"?>
<svg width="25px" height="24px" viewBox="0 0 25 24" version="1.1" xmlns="http://www.w3.org/2000/svg" xmlns:xlink="http://www.w3.org/1999/xlink">
    <!-- Generator: Sketch 50.2 (55047) - http://www.bohemiancoding.com/sketch -->
    <title>icon/ic/health</title>
    <desc>Created with Sketch.</desc>
    <defs>
        <polygon id="path-1" points="0 0.295369481 24.6047454 0.295369481 24.6047454 22.95 0 22.95"></polygon>
    </defs>
    <g id="Page-1" stroke="none" stroke-width="1" fill="none" fill-rule="evenodd">
        <g id="Manual" transform="translate(-392.000000, -3646.000000)">
            <g id="icon/ic/health" transform="translate(391.000000, 3644.000000)">
                <g id="Group-3" transform="translate(1.327869, 2.250000)">
                    <mask id="mask-2" fill="white">
                        <use xlink:href="#path-1"></use>
                    </mask>
                    <g id="Clip-2"></g>
                    <path d="M11.513479,22.6223515 C11.9535192,23.0592956 12.6539674,23.0592956 13.0940075,22.6223515 L22.4692823,13.3678385 C25.3165664,10.3405249 25.3165664,5.55500279 22.4692823,2.52768916 C21.27193,1.26603526 19.6222898,0.559652143 17.9026632,0.572468377 L17.8443411,0.572468377 C15.773324,0.607638506 13.792706,1.44635669 12.3037433,2.91813721 C10.5074231,1.17453331 8.83357932,0.295280065 7.32595348,0.295280065 C5.37128887,0.289020974 3.49856679,1.09614565 2.1382042,2.53066968 C0.650407869,4.10408591 -0.120318457,6.2452911 0.0152803857,8.42911773 C0.0249035294,8.5936424 0.163418476,8.71912227 0.324387425,8.70928656 C0.485356374,8.69945084 0.608124359,8.55787617 0.598501215,8.39335149 C0.472525516,6.37643396 1.18405493,4.39856123 2.5581232,2.94496188 C3.80854866,1.62697617 5.52963333,0.885720974 7.32595348,0.891383961 C8.72276737,0.891383961 10.3120441,1.77063721 12.0529583,3.50231903 C12.1905984,3.64538396 12.4160133,3.64747032 12.5559863,3.50678981 C12.5574443,3.50529955 12.5589024,3.50380929 12.5603604,3.50231903 C13.9548414,2.04782552 15.8523504,1.2105976 17.8443411,1.17155279 L17.8909988,1.17155279 C19.4560719,1.16261123 20.9566991,1.80878786 22.0435311,2.95986448 C24.6648171,5.7546976 24.6648171,10.1646742 22.0435311,12.9595073 L12.6711724,22.1991177 C12.4565471,22.4110327 12.1159462,22.4110327 11.9013209,22.1991177 L5.48589176,15.8655138 C5.36983082,15.7510619 5.18524143,15.7543405 5.07326303,15.8729651 C4.96128463,15.9915898 4.96449234,16.1802567 5.08055329,16.2947086 L11.513479,22.6223515 Z" id="Fill-1" stroke="#696969" fill="#696969" mask="url(#mask-2)"></path>
                </g>
                <path d="M7.86812598,15.154237 C7.95335841,15.2926452 8.13284102,15.3346408 8.26898018,15.2476921 C8.32221408,15.2139773 8.36323036,15.1634051 8.38592022,15.1039606 L10.4221897,9.81014474 L12.2082889,16.999679 C12.2376694,17.118568 12.3359921,17.2066997 12.4555502,17.2214869 L12.4904577,17.2214869 C12.5992527,17.2217826 12.6993208,17.1599721 12.7493548,17.0617852 L14.939799,12.7971581 L15.9462979,14.621898 C15.9977864,14.7147616 16.0943638,14.7724316 16.1993771,14.7727274 L18.9017976,14.7727274 C19.062372,14.7727274 19.1926932,14.6402341 19.1926932,14.4769835 C19.1926932,14.3137329 19.062372,14.1812396 18.9017976,14.1812396 L16.3710055,14.1812396 L15.1841513,12.0311814 C15.1079367,11.8874499 14.931363,11.8339203 14.7899877,11.9114052 C14.7399537,11.9389093 14.6992283,11.9803135 14.672175,12.0311814 L12.5719085,16.1006175 L10.7509018,8.76616878 C10.7075583,8.60883302 10.5469839,8.51715241 10.3925183,8.56092251 C10.3029225,8.58635648 10.2307804,8.65408184 10.1982001,8.74250926 L8.05429919,14.3616434 L6.57654935,11.9661178 C6.52331544,11.8794648 6.42964705,11.8268224 6.32928805,11.8271181 C6.22892906,11.8268224 6.13526066,11.8794648 6.08202676,11.9661178 L4.72936204,14.1812396 L2.50401039,14.1812396 C2.343436,14.1812396 2.21311475,14.3137329 2.21311475,14.4769835 C2.21311475,14.6402341 2.343436,14.7727274 2.50401039,14.7727274 L4.88935464,14.7727274 C4.98971363,14.7730231 5.08338203,14.7203807 5.13661593,14.6337278 L6.33219701,12.6640734 L7.86812598,15.154237 Z" id="Fill-4" stroke="#696969" fill="#696969"></path>
            </g>
        </g>
    </g>
</svg>