<?xml version="1.0" encoding="UTF-8" standalone="no"?>
<svg width="24px" height="18px" viewBox="0 0 24 18" version="1.1" xmlns="http://www.w3.org/2000/svg" xmlns:xlink="http://www.w3.org/1999/xlink">
    <!-- Generator: Sketch 50.2 (55047) - http://www.bohemiancoding.com/sketch -->
    <title>ic_mail</title>
    <desc>Created with Sketch.</desc>
    <defs></defs>
    <g id="Page-1" stroke="none" stroke-width="1" fill="none" fill-rule="evenodd">
        <g id="Manual" transform="translate(-227.000000, -3600.000000)" fill="#696969">
            <g id="ic_mail" transform="translate(227.000000, 3597.000000)">
                <path d="M21.0701387,3 L2.93487595,3 C1.31588662,3 0,4.29684813 0,5.89241362 L0,18.1078311 C0,19.7031519 1.31588662,21 2.93487595,21 L21.0650487,21 C22.684038,21 23.9999867,19.7031519 23.9999867,18.1078311 L23.9999867,5.89718527 C24.0048284,4.30186448 22.6889418,3 21.0701387,3 L21.0701387,3 Z M22.6641746,18.1078311 C22.6641746,18.9740686 21.9491551,19.6788042 21.0701387,19.6788042 L2.93487595,19.6788042 C2.05592154,19.6788042 1.34090206,18.9740686 1.34090206,18.1078311 L1.34090206,5.89718527 C1.34090206,5.03094774 2.05592154,4.32627329 2.93487595,4.32627329 L21.0650487,4.32627329 C21.9440651,4.32627329 22.6590846,5.03094774 22.6590846,5.89718527 L22.6590846,18.1078311 L22.6641746,18.1078311 Z M15.1451273,12.1162635 L21.0386143,6.8926479 C21.3130387,6.64625384 21.3378447,6.22732235 21.088538,5.95136101 C20.8392312,5.68038914 20.4153474,5.65587294 20.1363732,5.90226699 L12.0088484,13.1116955 L10.4231328,11.7119924 C10.4182713,11.7071878 10.4134099,11.7023831 10.4134099,11.697332 C10.3783199,11.6628984 10.3435417,11.6333311 10.3035902,11.6037023 L3.85159386,5.89721591 C3.57230797,5.65082186 3.14842417,5.67533807 2.89911742,5.95136101 C2.64981067,6.22732235 2.67492832,6.64625384 2.95390258,6.8926479 L8.91756936,12.1604912 L2.97902023,17.6550787 C2.70970661,17.9065238 2.69462355,18.3253937 2.94904109,18.5963656 C3.08366674,18.734223 3.26310527,18.8083261 3.44254381,18.8083261 C3.60714859,18.8083261 3.77169104,18.7491299 3.90145521,18.6307375 L9.92963012,13.0575504 L11.5649577,14.5012348 C11.6947219,14.614576 11.8542159,14.6687211 12.0139592,14.6687211 C12.1733909,14.6687211 12.3379957,14.6097713 12.462649,14.4964301 L14.1430389,13.00821 L20.1363732,18.6357886 C20.265888,18.7589856 20.4353543,18.8181818 20.5998967,18.8181818 C20.7793353,18.8181818 20.9539123,18.7491299 21.088538,18.611026 C21.3429555,18.3451668 21.3329832,17.9211843 21.0637319,17.6699855 L15.1451273,12.1162635 Z"></path>
            </g>
        </g>
    </g>
</svg>