<?xml version="1.0" encoding="UTF-8" standalone="no"?>
<svg width="5px" height="20px" viewBox="0 0 5 20" version="1.1" xmlns="http://www.w3.org/2000/svg" xmlns:xlink="http://www.w3.org/1999/xlink">
    <!-- Generator: Sketch 50.2 (55047) - http://www.bohemiancoding.com/sketch -->
    <title>more</title>
    <desc>Created with Sketch.</desc>
    <defs></defs>
    <g id="Page-1" stroke="none" stroke-width="1" fill="none" fill-rule="evenodd">
        <g id="Manual" transform="translate(-435.000000, -3599.000000)" fill="#B1B3B6">
            <g id="more" transform="translate(435.000000, 3599.000000)">
                <g>
                    <path d="M2.49994126,7.5 C1.12307475,7.5 0,8.62066636 0,9.99994126 C0,11.3792162 1.12307475,12.5 2.49994126,12.5 C2.73261551,12.5 2.92296667,12.3096782 2.92296667,12.0771214 C2.92296667,11.8444472 2.73261551,11.654096 2.49994126,11.654096 C1.58830578,11.654096 0.84590397,10.9115767 0.84590397,9.99994126 C0.84590397,9.08830578 1.58830578,8.34578649 2.49994126,8.34578649 C3.41169422,8.34578649 4.1541254,9.08830578 4.1541254,9.99994126 C4.1541254,10.3947121 4.01323441,10.775385 3.75703427,11.0738202 C3.60433628,11.252335 3.62545378,11.5178162 3.80408604,11.6706317 C3.98260083,11.8233297 4.24819958,11.8020947 4.40089757,11.6235799 C4.78856072,11.1724762 5,10.5944619 5,9.99994126 C5,8.62307475 3.87921616,7.5 2.49994126,7.5 L2.49994126,7.5 Z" id="Fill-4"></path>
                    <path d="M2.49994126,15 C1.12307475,15 0,16.1206664 0,17.4999413 C0,18.8792162 1.12307475,20 2.49994126,20 C2.73261551,20 2.92296667,19.8096782 2.92296667,19.5771214 C2.92296667,19.3444472 2.73261551,19.154096 2.49994126,19.154096 C1.58830578,19.154096 0.84590397,18.4115767 0.84590397,17.4999413 C0.84590397,16.5883058 1.58830578,15.8457865 2.49994126,15.8457865 C3.41169422,15.8457865 4.1541254,16.5883058 4.1541254,17.4999413 C4.1541254,17.8947121 4.01323441,18.275385 3.75703427,18.5738202 C3.60433628,18.752335 3.62545378,19.0178162 3.80408604,19.1706317 C3.98260083,19.3233297 4.24819958,19.3020947 4.40089757,19.1235799 C4.78856072,18.6724762 5,18.0944619 5,17.4999413 C5,16.1230748 3.87921616,15 2.49994126,15 L2.49994126,15 Z" id="Fill-4-Copy-2"></path>
                    <path d="M2.49994126,0 C1.12307475,0 0,1.12066636 0,2.49994126 C0,3.87921616 1.12307475,5 2.49994126,5 C2.73261551,5 2.92296667,4.80967822 2.92296667,4.57712144 C2.92296667,4.34444719 2.73261551,4.15409603 2.49994126,4.15409603 C1.58830578,4.15409603 0.84590397,3.41157673 0.84590397,2.49994126 C0.84590397,1.58830578 1.58830578,0.845786487 2.49994126,0.845786487 C3.41169422,0.845786487 4.1541254,1.58830578 4.1541254,2.49994126 C4.1541254,2.89471211 4.01323441,3.27538505 3.75703427,3.57382018 C3.60433628,3.75233497 3.62545378,4.01781623 3.80408604,4.1706317 C3.98260083,4.32332969 4.24819958,4.30209471 4.40089757,4.12357993 C4.78856072,3.67247618 5,3.09446187 5,2.49994126 C5,1.12307475 3.87921616,0 2.49994126,0 L2.49994126,0 Z" id="Fill-4-Copy"></path>
                </g>
            </g>
        </g>
    </g>
</svg>