<?xml version="1.0" encoding="UTF-8" standalone="no"?>
<svg width="15px" height="21px" viewBox="0 0 15 21" version="1.1" xmlns="http://www.w3.org/2000/svg" xmlns:xlink="http://www.w3.org/1999/xlink">
    <!-- Generator: Sketch 50.2 (55047) - http://www.bohemiancoding.com/sketch -->
    <title>ic_profile</title>
    <desc>Created with Sketch.</desc>
    <defs></defs>
    <g id="Page-1" stroke="none" stroke-width="1" fill="none" fill-rule="evenodd">
        <g id="Manual" transform="translate(-603.000000, -3598.000000)" fill="#696969">
            <g id="ic_profile" transform="translate(603.000000, 3598.000000)">
                <path d="M11.1932044,10.952008 C10.8825688,11.2402753 10.8613419,11.7306902 11.1464947,12.0450463 C12.0870201,13.0819804 12.6063599,14.4288598 12.6063599,15.8360391 L12.6063599,19.1624906 C12.6063599,19.3175708 12.4785731,19.446616 12.3254099,19.446616 L1.80880498,19.446616 C1.65564176,19.446616 1.52785501,19.3175708 1.52785501,19.1624906 L1.52785501,15.8360391 C1.52785501,12.7464306 4.01347225,10.2375524 7.06503265,10.2375524 C9.85697633,10.2375524 12.1296334,7.93969744 12.1296334,5.11667836 C12.1296334,2.29371308 9.86112594,0 7.06918226,0 C4.27718537,0 2.00458152,2.2979088 2.00458152,5.12087408 C2.00458152,5.96432103 2.21323249,6.80351846 2.60473237,7.5435786 C2.80465852,7.92243044 3.2686702,8.06008228 3.64314603,7.85771956 C4.01767506,7.65557201 4.15376103,7.18661981 3.95383488,6.80776797 C3.68139693,6.29147946 3.53674574,5.71048007 3.53674574,5.12087408 C3.53674574,3.14996235 5.11987569,1.54924206 7.06918226,1.54924206 C9.01848882,1.54924206 10.6017784,3.14996235 10.6017784,5.12087408 C10.6017784,7.09183961 9.01848882,8.69277507 7.06918226,8.69277507 C3.17083513,8.69277507 0,11.8985727 0,15.84045 L0,19.1669015 C0,20.1782309 0.812951438,21 1.81295459,21 L12.3297723,21 C13.3297755,21 14.1427269,20.1782309 14.1427269,19.1669015 L14.1427269,15.84045 C14.1427269,14.0416165 13.4787359,12.3247071 12.2742846,10.9992367 C11.9891318,10.6851495 11.5038933,10.6634716 11.1932044,10.952008 Z" id="ic_info"></path>
            </g>
        </g>
    </g>
</svg>