<?xml version="1.0" encoding="UTF-8" standalone="no"?>
<svg width="20px" height="24px" viewBox="0 0 20 24" version="1.1" xmlns="http://www.w3.org/2000/svg" xmlns:xlink="http://www.w3.org/1999/xlink">
    <!-- Generator: Sketch 50.2 (55047) - http://www.bohemiancoding.com/sketch -->
    <title>icon/ic/transport</title>
    <desc>Created with Sketch.</desc>
    <defs></defs>
    <g id="Page-1" stroke="none" stroke-width="1" fill="none" fill-rule="evenodd">
        <g id="Manual" transform="translate(-313.000000, -3646.000000)" stroke="#696969">
            <g id="icon/ic/transport" transform="translate(314.000000, 3647.000000)">
                <g id="ambulance_icon">
                    <path d="M0,5.68822497 L0,18.5971564 C0,19.1808642 0.477777778,19.6556927 1.06488889,19.6556927 L10.3288889,19.6556927 C10.3282222,19.6249945 11.0206667,19.7292359 11.0135556,19.5682359 C11.0042222,19.3566612 10.3253333,19.4776872 10.3248889,19.4348422 L1.06488889,19.4348422 C0.600222222,19.4348422 0.222222222,19.0591756 0.222222222,18.5971564 L0.222222222,5.90907545 L17.6475556,5.90907545 L17.6475556,18.5971564 C17.6475556,19.0591756 17.2695556,19.4348422 16.8048889,19.4348422 L13.532,19.4487558 C13.5326667,19.522299 13.5344444,19.5958422 13.5362222,19.6696063 L16.8048889,19.6556927 C17.3922222,19.6556927 17.8697778,19.1808642 17.8697778,18.5971564 L17.8697778,5.68822497 L0,5.68822497 Z" id="Fill-1" fill="#696969"></path>
                    <path d="M0.222222222,5.21427984 L8.58533333,5.21427984 L8.58533333,0.22085048 L1.06488889,0.22085048 C0.600222222,0.22085048 0.222222222,0.596517147 0.222222222,1.0583155 L0.222222222,5.21427984 Z M8.80755556,5.43513032 L0,5.43513032 L0,1.0583155 C0,0.474607682 0.477777778,0 1.06488889,0 L8.80755556,0 L8.80755556,5.43513032 Z" id="Fill-9" fill="#696969"></path>
                    <path d="M9.28444444,5.21427984 L17.6475556,5.21427984 L17.6475556,1.0583155 C17.6475556,0.596517147 17.2695556,0.22085048 16.8048889,0.22085048 L9.28444444,0.22085048 L9.28444444,5.21427984 Z M17.8697778,5.43513032 L9.06222222,5.43513032 L9.06222222,0 L16.8048889,0 C17.3922222,0 17.8697778,0.474828532 17.8697778,1.0583155 L17.8697778,5.43513032 Z" id="Fill-13" fill="#696969"></path>
                    <path d="M4.21266667,19.5728738 L4.21266667,21.2292524 C4.21266667,21.8518299 3.70022222,22.1402606 3.07377778,22.1402606 C2.44733333,22.1402606 1.93488889,21.8518299 1.93488889,21.2292524 L1.93488889,19.5728738" id="Stroke-17"></path>
                    <path d="M15.8237778,19.5176612 L15.8237778,21.1740398 C15.8237778,21.7966173 15.3113333,22.085048 14.6848889,22.085048 C14.0584444,22.085048 13.546,21.7966173 13.546,21.1740398 L13.546,19.5176612" id="Stroke-19"></path>
                    <path d="M9.38456852,15.8342441 C9.20529715,15.8342441 9.06005577,15.6898992 9.06005577,15.5117345 L9.06005577,12.9316579 L6.46395382,12.9316579 C6.28468246,12.9316579 6.13944108,12.787313 6.13944108,12.6091483 C6.13944108,12.4309835 6.28468246,12.2866387 6.46395382,12.2866387 L9.06005577,12.2866387 L9.06005577,9.70656207 C9.06005577,9.52839732 9.20529715,9.38405249 9.38456852,9.38405249 C9.56383988,9.38405249 9.70908126,9.52839732 9.70908126,9.70656207 L9.70908126,12.2866387 L12.3051832,12.2866387 C12.4844546,12.2866387 12.629696,12.4309835 12.629696,12.6091483 C12.629696,12.787313 12.4844546,12.9316579 12.3051832,12.9316579 L9.70908126,12.9316579 L9.70908126,15.5117345 C9.70908126,15.6898992 9.56383988,15.8342441 9.38456852,15.8342441 Z" id="Path" fill="#696969"></path>
                </g>
            </g>
        </g>
    </g>
</svg>