<?xml version="1.0" encoding="UTF-8" standalone="no"?>
<svg width="19px" height="22px" viewBox="0 0 19 22" version="1.1" xmlns="http://www.w3.org/2000/svg" xmlns:xlink="http://www.w3.org/1999/xlink">
    <!-- Generator: Sketch 50.2 (55047) - http://www.bohemiancoding.com/sketch -->
    <title>ic_activity_log</title>
    <desc>Created with Sketch.</desc>
    <defs></defs>
    <g id="Page-1" stroke="none" stroke-width="1" fill="none" fill-rule="evenodd">
        <g id="style-guide" transform="translate(-536.000000, -3648.000000)" fill="#696969">
            <g id="ic_activity_log" transform="translate(536.000000, 3648.000000)">
                <path d="M18.1805332,2.34510185 C18.6312342,2.34510185 19,2.707367 19,3.15052087 L19,21.1943572 C19,21.6375111 18.6312342,22 18.1805332,22 L0.819239224,22 C0.36870886,22 0,21.6375111 0,21.1943572 L0,3.15052087 C0,2.707367 0.36870886,2.34510185 0.819239224,2.34510185 L2.89965621,2.34510185 C3.35018657,2.34510185 3.71889543,2.707367 3.71889543,3.15052087 C3.71889543,3.59345099 3.35018657,3.95599584 2.89965621,3.95599584 L1.63876294,3.95599584 L1.63876294,20.3933015 L17.3565713,20.3933015 L17.3565713,3.96058289 L12.9366169,3.96058289 C12.4860866,3.96058289 12.1173777,3.59803804 12.1173777,3.15488417 L12.1173777,1.61111775 L6.87795653,1.61111775 L6.87795653,4.2557764 L11.1432011,4.2557764 C11.5939591,4.2557764 11.9624403,4.61832125 11.9624403,5.06141919 C11.9624403,5.50434931 11.5939591,5.86689415 11.1432011,5.86689415 L6.05866041,5.86689415 C5.60795934,5.86689415 5.23919358,5.50434931 5.23919358,5.06141919 L5.23919358,0.805419026 C5.23919358,0.362488907 5.60795934,0 6.05866041,0 L12.9412827,0 C13.3918131,0 13.7605788,0.362488907 13.7605788,0.805419026 L13.7605788,2.34510185 L18.1805332,2.34510185 Z M14.1888451,10.7555556 C14.6351549,10.7555556 15,10.9755819 15,11.2443935 C15,11.513307 14.6351549,11.7333333 14.1888451,11.7333333 L7.81143662,11.7333333 C7.36512676,11.7333333 7,11.513307 7,11.2443935 C7,10.9755819 7.36512676,10.7555556 7.81143662,10.7555556 L14.1888451,10.7555556 Z M14.1888451,7.82222222 C14.6351549,7.82222222 15,8.04222222 15,8.31104321 C15,8.58 14.6351549,8.8 14.1888451,8.8 L7.81143662,8.8 C7.36512676,8.8 7,8.58 7,8.31104321 C7,8.04222222 7.36512676,7.82222222 7.81143662,7.82222222 L14.1888451,7.82222222 Z M14.1888451,13.6888889 C14.6351549,13.6888889 15,13.9088813 15,14.1778287 C15,14.4466404 14.6351549,14.6666667 14.1888451,14.6666667 L7.81143662,14.6666667 C7.36512676,14.6666667 7,14.4466404 7,14.1778287 C7,13.9088813 7.36512676,13.6888889 7.81143662,13.6888889 L14.1888451,13.6888889 Z M5.5,8.06655541 C5.5,8.47179456 5.16419405,8.8 4.74997725,8.8 C4.33580595,8.8 4,8.47179456 4,8.06655541 C4,7.66153877 4.33580595,7.33333333 4.74997725,7.33333333 C5.16419405,7.33333333 5.5,7.66153877 5.5,8.06655541 Z M5.5,11.0000222 C5.5,11.4049897 5.16419405,11.7333333 4.74997725,11.7333333 C4.33580595,11.7333333 4,11.4049897 4,11.0000222 C4,10.5950103 4.33580595,10.2666667 4.74997725,10.2666667 C5.16419405,10.2666667 5.5,10.5950103 5.5,11.0000222 Z M5.5,13.9333111 C5.5,14.3383231 5.16419405,14.6666667 4.74997725,14.6666667 C4.33580595,14.6666667 4,14.3383231 4,13.9333111 C4,13.5283436 4.33580595,13.2 4.74997725,13.2 C5.16419405,13.2 5.5,13.5283436 5.5,13.9333111 Z M14.1888451,16.6222222 C14.6351549,16.6222222 15,16.8422485 15,17.111196 C15,17.3800076 14.6351549,17.6 14.1888451,17.6 L7.81143662,17.6 C7.36512676,17.6 7,17.3800076 7,17.111196 C7,16.8422485 7.36512676,16.6222222 7.81143662,16.6222222 L14.1888451,16.6222222 Z M5.5,16.8667779 C5.5,17.2717946 5.16419405,17.6 4.74997725,17.6 C4.33580595,17.6 4,17.2717946 4,16.8667779 C4,16.4617168 4.33580595,16.1333333 4.74997725,16.1333333 C5.16419405,16.1333333 5.5,16.4617168 5.5,16.8667779 Z" id="ic_list"></path>
            </g>
        </g>
    </g>
</svg>