<?xml version="1.0" encoding="UTF-8" standalone="no"?>
<svg width="37px" height="37px" viewBox="0 0 37 37" version="1.1" xmlns="http://www.w3.org/2000/svg" xmlns:xlink="http://www.w3.org/1999/xlink">
    <!-- Generator: Sketch 50.2 (55047) - http://www.bohemiancoding.com/sketch -->
    <title>avatar</title>
    <desc>Created with Sketch.</desc>
    <defs>
        <circle id="path-1" cx="18.5" cy="18.5" r="18.5"></circle>
    </defs>
    <g id="Page-1" stroke="none" stroke-width="1" fill="none" fill-rule="evenodd">
        <g id="Activity-log_alerts" transform="translate(-140.000000, -941.000000)">
            <g id="medical-appointment" transform="translate(31.000000, 842.000000)">
                <g id="Rectangle-3">
                    <g id="avatar" transform="translate(109.000000, 99.000000)">
                        <g>
                            <mask id="mask-2" fill="white">
                                <use xlink:href="#path-1"></use>
                            </mask>
                            <use id="Mask" fill="#A1A1A1" fill-rule="evenodd" xlink:href="#path-1"></use>
                            <g id="ic_profile" mask="url(#mask-2)" fill="#FFFFFF" fill-rule="evenodd">
                                <g transform="translate(6.000000, 9.000000)" id="ic_info">
                                    <path d="M19.4015543,18.7748708 C18.8631192,19.2690434 18.826326,20.1097547 19.3205908,20.6486509 C20.9508348,22.4262522 21.8510238,24.7351882 21.8510238,27.1474956 L21.8510238,32.8499839 C21.8510238,33.1158356 21.6295268,33.337056 21.3640439,33.337056 L3.13526196,33.337056 C2.86977905,33.337056 2.64828201,33.1158356 2.64828201,32.8499839 L2.64828201,27.1474956 C2.64828201,21.8510238 6.95668523,17.5500899 12.2460566,17.5500899 C17.0854256,17.5500899 21.0246979,13.6109099 21.0246979,8.77144862 C21.0246979,3.93207957 17.0926183,0 12.2532492,0 C7.41378798,0 3.47460796,3.93927223 3.47460796,8.77864128 C3.47460796,10.2245503 3.83626965,11.6631745 4.51486944,12.931849 C4.8614081,13.5813093 5.66569501,13.8172839 6.31478645,13.4703764 C6.9639701,13.1238377 7.19985246,12.3199197 6.8533138,11.6704594 C6.38108802,10.7853934 6.13035927,9.78939441 6.13035927,8.77864128 C6.13035927,5.39993545 8.8744512,2.65584352 12.2532492,2.65584352 C15.6320473,2.65584352 18.3764159,5.39993545 18.3764159,8.77864128 C18.3764159,12.1574393 15.6320473,14.9019001 12.2532492,14.9019001 C5.49611422,14.9019001 0,20.3975533 0,27.1550571 L0,32.8575454 C0,34.591253 1.40911583,36 3.14245462,36 L21.3716054,36 C23.1049442,36 24.51406,34.591253 24.51406,32.8575454 L24.51406,27.1550571 C24.51406,24.0713426 23.3631422,21.1280693 21.2754266,18.8558343 C20.7811618,18.3173992 19.9400817,18.2802371 19.4015543,18.7748708 Z"></path>
                                </g>
                            </g>
                        </g>
                    </g>
                </g>
            </g>
        </g>
    </g>
</svg>