<?xml version="1.0" encoding="UTF-8" standalone="no"?>
<svg width="22px" height="22px" viewBox="0 0 22 22" version="1.1" xmlns="http://www.w3.org/2000/svg" xmlns:xlink="http://www.w3.org/1999/xlink">
    <!-- Generator: Sketch 50.2 (55047) - http://www.bohemiancoding.com/sketch -->
    <title>ic_calendar</title>
    <desc>Created with Sketch.</desc>
    <defs></defs>
    <g id="Page-1" stroke="none" stroke-width="1" fill="none" fill-rule="evenodd">
        <g id="Manual" transform="translate(-54.000000, -3647.000000)" fill="#696969">
            <g id="ic_calendar" transform="translate(54.000000, 3647.000000)">
                <path d="M6.24145147,4.53239841 C6.24145147,4.7609605 6.03181043,4.9469994 5.77425144,4.9469994 C5.51669245,4.9469994 5.30705141,4.7609605 5.30705141,4.53239841 L5.30705141,1.63509799 C5.30705141,1.40612703 5.51669245,1.22008812 5.77425144,1.22008812 C6.03181043,1.22008812 6.24145147,1.40612703 6.24145147,1.63509799 L6.24145147,4.53239841 Z M16.2751942,4.53239841 C16.2751942,4.7609605 16.0655531,4.9469994 15.8084549,4.9469994 C15.5508959,4.9469994 15.3412549,4.7609605 15.3412549,4.53239841 L15.3412549,1.63509799 C15.3412549,1.40612703 15.5508959,1.22008812 15.8084549,1.22008812 C16.0655531,1.22008812 16.2751942,1.40612703 16.2751942,1.63509799 L16.2751942,4.53239841 Z M5.77425144,6.16749641 C6.78974342,6.16749641 7.61632809,5.43397157 7.61632809,4.53239841 L7.61632809,3.86143172 L13.9663782,3.86143172 L13.9663782,4.53239841 C13.9663782,5.43397157 14.7929629,6.16749641 15.8084549,6.16749641 C16.8244076,6.16749641 17.6509923,5.43397157 17.6509923,4.53239841 L17.6509923,3.86143172 L18.9526097,3.86143172 C19.6552528,3.86143172 20.227043,4.3692566 20.227043,4.99320247 L20.227043,8.08308383 L1.37501485,8.08308383 L1.37501485,4.99320247 C1.37501485,4.3692566 1.94726577,3.86143172 2.65036957,3.86143172 L3.93217478,3.86143172 L3.93217478,4.53239841 C3.93217478,5.43397157 4.75829871,6.16749641 5.77425144,6.16749641 L5.77425144,6.16749641 Z M18.9526097,2.64134359 C20.4141073,2.64134359 21.6028411,3.69624553 21.6028411,4.99320247 L21.6028411,9.41070653 C21.6028411,9.74721207 21.2941389,10.0207506 20.914942,10.0207506 C20.5352844,10.0207506 20.227043,9.74721207 20.227043,9.41070653 L20.227043,9.30317195 L1.37501485,9.30317195 L1.37501485,13.3056661 C1.37501485,13.6421717 1.06677341,13.9157102 0.687576536,13.9157102 C0.308379666,13.9157102 0.000138224861,13.6421717 0.000138224861,13.3056661 L0.000138224861,4.99320247 C0.000138224861,3.69624553 1.18887203,2.64134359 2.65036957,2.64134359 L3.93217478,2.64134359 L3.93217478,1.63509799 C3.93217478,0.733524831 4.75829871,0 5.77425144,0 C6.78974342,0 7.61632809,0.733524831 7.61632809,1.63509799 L7.61632809,2.64134359 L13.9663782,2.64134359 L13.9663782,1.63509799 C13.9663782,0.733524831 14.7929629,0 15.8084549,0 C16.8244076,0 17.6509923,0.733524831 17.6509923,1.63509799 L17.6509923,2.64134359 L18.9526097,2.64134359 Z M20.9148038,14.4448376 C21.2940007,14.4448376 21.6027029,14.7183761 21.6027029,15.0548816 L21.6027029,19.318648 C21.6027029,20.615605 20.413969,21.6705069 18.9524715,21.6705069 L2.65023134,21.6705069 C1.18873381,21.6705069 0,20.615605 0,19.318648 L0,16.1187788 C0,15.7822733 0.308241441,15.5087348 0.687438311,15.5087348 C1.06663518,15.5087348 1.37487662,15.7822733 1.37487662,16.1187788 L1.37487662,19.318648 C1.37487662,19.9425939 1.94712755,20.4504188 2.65023134,20.4504188 L18.9524715,20.4504188 C19.6555753,20.4504188 20.2273655,19.9425939 20.2273655,19.318648 L20.2273655,15.0548816 C20.2273655,14.7183761 20.5356069,14.4448376 20.9148038,14.4448376 Z M20.9148038,10.7841234 C21.2940007,10.7841234 21.6027029,11.0580708 21.6027029,11.3941675 L21.6027029,11.7188156 C21.6027029,12.0553211 21.2940007,12.3288597 20.9148038,12.3288597 C20.5356069,12.3288597 20.2273655,12.0553211 20.2273655,11.7188156 L20.2273655,11.3941675 C20.2273655,11.0580708 20.5356069,10.7841234 20.9148038,10.7841234 Z" id="ic_calendar_grey"></path>
            </g>
        </g>
    </g>
</svg>