<?xml version="1.0" encoding="UTF-8" standalone="no"?>
<svg width="23px" height="23px" viewBox="0 0 23 23" version="1.1" xmlns="http://www.w3.org/2000/svg" xmlns:xlink="http://www.w3.org/1999/xlink">
    <!-- Generator: Sketch 50.2 (55047) - http://www.bohemiancoding.com/sketch -->
    <title>ic_checkin</title>
    <desc>Created with Sketch.</desc>
    <defs></defs>
    <g id="Page-1" stroke="none" stroke-width="1" fill="none" fill-rule="evenodd">
        <g id="style-guide" transform="translate(-577.000000, -3647.000000)" fill="#696969">
            <g id="ic_checkin" transform="translate(573.000000, 3643.000000)">
                <g id="Group" transform="translate(0.000000, 0.441379)">
                    <path d="M23.0953279,7.64723315 C22.7856914,7.3355088 22.2811908,7.3355088 21.9713883,7.64723315 L19.4935771,10.1375755 C19.1837193,10.4492999 19.1837193,10.9572023 19.4935771,11.2734928 C19.8031583,11.5853842 20.3076589,11.5853842 20.6218311,11.2734928 L22.5112886,9.3712949 C25.5733604,13.0286268 25.3918265,18.5171025 21.9713883,21.9606598 C20.22364,23.7201372 17.8960009,24.6913941 15.422504,24.6913941 C12.9490071,24.6913941 10.6259035,23.7247034 8.87367496,21.9650033 C5.26279761,18.329834 5.26279761,12.418264 8.87367496,8.78331751 C11.0904689,6.55135333 14.2542594,5.60253746 17.3297167,6.25293768 C17.7587718,6.34208929 18.1835679,6.06583625 18.2721777,5.63366535 C18.3607322,5.2016615 18.0863294,4.77400108 17.6570531,4.68484948 C14.0552469,3.91873593 10.3515007,5.02786877 7.74968,7.64723315 C5.70075795,9.70997077 4.57250397,12.4539581 4.57250397,15.3719608 C4.57250397,18.2897965 5.70075795,21.0340066 7.74968,23.0965215 C9.79838081,25.1590363 12.5242663,26.2951764 15.422504,26.2951764 C18.3207969,26.2951764 21.0466271,25.1590363 23.0953279,23.0965215 C25.14425,21.0340066 26.272504,18.2897965 26.272504,15.3719608 C26.272504,12.4539581 25.14425,9.70997077 23.0953279,7.64723315 L23.0953279,7.64723315 Z" id="ic_add" transform="translate(15.422504, 15.371038) rotate(-315.000000) translate(-15.422504, -15.371038) "></path>
                    <path d="M17.8264348,19.7096847 C17.7774061,19.7189675 17.7268089,19.7238238 17.6750693,19.7238238 L12.8963489,19.7238238 C12.4487006,19.7238238 12.08581,19.3626657 12.08581,18.910157 C12.08581,18.4607812 12.4482276,18.0964902 12.8963489,18.0964902 L16.9130428,18.0964902 L16.9130428,8.90961389 C16.9130428,8.4248351 17.3057271,8.03184425 17.7977364,8.03184425 C18.2863392,8.03184425 18.68243,8.42040178 18.68243,8.90961389 L18.68243,18.8323621 C18.68243,19.3076773 18.3049275,19.6947533 17.8264348,19.7096847 Z" id="Combined-Shape" transform="translate(15.378763, 13.876476) rotate(-320.000000) translate(-15.378763, -13.876476) "></path>
                </g>
            </g>
        </g>
    </g>
</svg>