<?xml version="1.0" encoding="UTF-8" standalone="no"?>
<svg width="22px" height="22px" viewBox="0 0 22 22" version="1.1" xmlns="http://www.w3.org/2000/svg" xmlns:xlink="http://www.w3.org/1999/xlink">
    <!-- Generator: Sketch 50.2 (55047) - http://www.bohemiancoding.com/sketch -->
    <title>ic_clock</title>
    <desc>Created with Sketch.</desc>
    <defs></defs>
    <g id="Page-1" stroke="none" stroke-width="1" fill="none" fill-rule="evenodd">
        <g id="Manual" transform="translate(-138.000000, -3647.000000)" fill="#696969">
            <g id="ic_clock" transform="translate(138.000000, 3647.000000)">
                <path d="M18.438345,3.1744643 C20.4795893,5.22210232 21.603057,7.93898344 21.603057,10.8351452 C21.603057,13.7315875 20.4795893,16.448188 18.438345,18.4958821 C16.3970447,20.5435202 13.6889268,21.6705069 10.8015285,21.6705069 C7.91435406,21.6705069 5.20601231,20.5435202 3.164768,18.4958821 C1.12346774,16.448188 0,13.7269848 0,10.8351452 C0,7.94336162 1.12346774,5.22210232 3.16034754,3.1744643 C5.74765828,0.57910555 9.43633446,-0.521163106 13.0218293,0.233285981 C13.4560973,0.322982405 13.7336909,0.754288617 13.6441067,1.18969235 C13.5544665,1.62975491 13.1247868,1.90821796 12.6996395,1.81835315 C9.65114633,1.17633331 6.51306894,2.11039977 4.31072972,4.31963729 C0.729599356,7.91198471 0.729599356,13.7585301 4.31072972,17.3508775 C7.89186008,20.943225 13.7201497,20.943225 17.3012801,17.3508775 C20.6944571,13.9471284 20.8734576,8.52700581 17.8475144,4.91231849 L15.9809062,6.78477345 C15.6630808,7.09921611 15.1527138,7.09921611 14.839253,6.78477345 C14.5260719,6.46595261 14.5260719,5.95398698 14.839253,5.63982497 L17.2969156,3.1744643 C17.6147409,2.86024616 18.125108,2.86024616 18.438345,3.1744643 Z M10.797164,3.29570602 C11.240217,3.29570602 11.6028064,3.6594312 11.5984419,4.10409645 L11.5984419,10.8261643 C11.5984419,10.853163 11.5984419,10.8801056 11.5938536,10.9071044 C11.5938536,10.9204634 11.5894891,10.9294443 11.5894891,10.9430278 C11.5894891,10.9610457 11.5894891,10.9744047 11.5849008,10.9877638 C11.5849008,11.0013474 11.5805363,11.0147625 11.5759479,11.0283461 C11.5715834,11.0417051 11.5715834,11.050686 11.5669951,11.0642696 L11.5536218,11.1046273 C11.5490335,11.1179864 11.544669,11.1270234 11.5400807,11.1406069 C11.5357162,11.153966 11.5267634,11.1629469 11.5223989,11.1765304 C11.5178105,11.1899456 11.5088577,11.1989265 11.5044932,11.2122855 C11.4999049,11.2258691 11.4908961,11.2392842 11.4865316,11.2482651 C11.4775788,11.2618487 11.4729904,11.2752077 11.4640376,11.2841886 C11.4550848,11.2978283 11.446132,11.3068091 11.4371232,11.3201682 C11.4327587,11.3291491 11.4281704,11.3381299 11.4192175,11.3471108 C11.4015357,11.3651287 11.3835741,11.3874686 11.3656684,11.4054303 L7.91435406,14.8675551 C7.7576796,15.0247765 7.55176461,15.1056604 7.34584961,15.1056604 C7.13999057,15.1056604 6.93407557,15.0247765 6.77734517,14.8675551 C6.4639403,14.5487343 6.4639403,14.0367687 6.77734517,13.7226067 L9.99129776,10.4983626 L9.99129776,4.10409645 C9.99129776,3.6594312 10.3538872,3.29570602 10.797164,3.29570602 Z"></path>
            </g>
        </g>
    </g>
</svg>