<?xml version="1.0" encoding="UTF-8" standalone="no"?>
<svg width="23px" height="23px" viewBox="0 0 23 23" version="1.1" xmlns="http://www.w3.org/2000/svg" xmlns:xlink="http://www.w3.org/1999/xlink">
    <!-- Generator: Sketch 50.2 (55047) - http://www.bohemiancoding.com/sketch -->
    <title>icon/ic/companion</title>
    <desc>Created with Sketch.</desc>
    <defs></defs>
    <g id="Page-1" stroke="none" stroke-width="1" fill="none" fill-rule="evenodd">
        <g id="Manual" transform="translate(-228.000000, -3646.000000)" stroke="#696969">
            <g id="icon/ic/companion" transform="translate(229.000000, 3647.000000)">
                <g id="companion_ic">
                    <path d="M10.6104521,17.1166863 C10.4200817,17.1166863 10.2658481,16.9589148 10.2658481,16.7641775 L10.2658481,13.9441067 L7.50901559,13.9441067 C7.31864513,13.9441067 7.16441153,13.7863352 7.16441153,13.5915979 C7.16441153,13.3968605 7.31864513,13.239089 7.50901559,13.239089 L10.2658481,13.239089 L10.2658481,10.4190182 C10.2658481,10.2242809 10.4200817,10.0665094 10.6104521,10.0665094 C10.8008226,10.0665094 10.9550562,10.2242809 10.9550562,10.4190182 L10.9550562,13.239089 L13.7118887,13.239089 C13.9022591,13.239089 14.0564927,13.3968605 14.0564927,13.5915979 C14.0564927,13.7863352 13.9022591,13.9441067 13.7118887,13.9441067 L10.9550562,13.9441067 L10.9550562,16.7641775 C10.9550562,16.9589148 10.8008226,17.1166863 10.6104521,17.1166863 Z M7.22811671,3.53461573 C7.22811671,1.58724254 8.77864871,0 10.6834709,0 C12.586803,0 14.137335,1.58724254 14.137335,3.53461573 C14.137335,3.71487161 13.9968855,3.85930496 13.8206718,3.85930496 C13.644458,3.85930496 13.5032635,3.71487161 13.5032635,3.53461573 C13.5032635,1.94775429 12.2340029,0.649378459 10.6834709,0.649378459 C9.13144875,0.649378459 7.86256072,1.94775429 7.86256072,3.53461573 C7.86256072,3.71487161 7.72099365,3.85930496 7.54552499,3.85930496 C7.36856615,3.85930496 7.22811671,3.71487161 7.22811671,3.53461573 Z M19.6025691,20.3510026 C20.1319554,20.3510026 20.5197747,19.9542873 20.5197747,19.4493422 L20.5197747,13.6422829 C20.2731499,13.823301 19.9557417,13.9307685 19.6025691,13.9307685 L16.5350341,13.9307685 C16.3591929,13.9307685 16.2183709,13.7870974 16.2183709,13.6064604 C16.2183709,13.4258234 16.3591929,13.2817712 16.5350341,13.2817712 L19.6025691,13.2817712 C20.1319554,13.2817712 20.5197747,12.8854369 20.5197747,12.3801107 L20.5197747,7.36724435 C20.5197747,6.86229925 20.1319554,6.42976136 19.6025691,6.42976136 L1.55090454,6.42976136 C1.02263583,6.42976136 0.634816559,6.86229925 0.634816559,7.36724435 L0.634816559,12.3801107 C0.634816559,12.8854369 1.02263583,13.2817712 1.55090454,13.2817712 L4.61843948,13.2817712 C4.79502578,13.2817712 4.93547522,13.4258234 4.93547522,13.6064604 C4.93547522,13.7870974 4.79502578,13.9307685 4.61843948,13.9307685 L1.55090454,13.9307685 C1.19884958,13.9307685 0.881441302,13.823301 0.634816559,13.6422829 L0.634816559,19.4493422 C0.634816559,19.9542873 1.02263583,20.3510026 1.55090454,20.3510026 L19.6025691,20.3510026 Z M19.6025691,5.78038291 C20.4493637,5.78038291 21.1538462,6.5017875 21.1538462,7.36724435 L21.1538462,19.4493422 C21.1538462,20.314799 20.4493637,21 19.6025691,21 L1.55090454,21 C0.70522755,21 0,20.314799 0,19.4493422 L0,7.36724435 C0,6.5017875 0.70522755,5.78038291 1.55090454,5.78038291 L19.6025691,5.78038291 Z" id="Stroke-3"></path>
                </g>
            </g>
        </g>
    </g>
</svg>