<?xml version="1.0" encoding="UTF-8" standalone="no"?>
<svg width="22px" height="22px" viewBox="0 0 22 22" version="1.1" xmlns="http://www.w3.org/2000/svg" xmlns:xlink="http://www.w3.org/1999/xlink">
    <!-- Generator: Sketch 50.2 (55047) - http://www.bohemiancoding.com/sketch -->
    <title>ic_drugs</title>
    <desc>Created with Sketch.</desc>
    <defs></defs>
    <g id="Page-1" stroke="none" stroke-width="1" fill="none" fill-rule="evenodd">
        <g id="Manual" transform="translate(-184.000000, -3647.000000)" fill="#696969">
            <g id="ic_drugs" transform="translate(184.000000, 3647.000000)">
                <path d="M8.48635718,8.25815864 L11.9743698,4.77014599 C12.2374063,4.50689538 12.664399,4.50689538 12.9276496,4.77014599 C13.1909002,5.03339659 13.1906861,5.46017518 12.9276496,5.72342579 L9.43956094,9.21138523 L15.5578005,15.3297713 C15.6843406,15.4560973 15.7552117,15.6275474 15.7552117,15.8063309 C15.7552117,15.9851144 15.6843406,16.1565645 15.5578005,16.282837 L11.9835766,19.8571144 C11.9732955,19.8673955 11.962988,19.8776407 11.9526542,19.88785 C11.9495469,19.8910817 11.946401,19.89429 11.9432165,19.8974745 C10.622146,21.2187056 8.86492944,21.9465791 6.99626764,21.9465791 C5.12760584,21.9465791 3.37060341,21.2187056 2.04910462,19.8972603 C0.727873479,18.5759757 0,16.8189732 0,14.9500973 C0,13.0814355 0.727659367,11.3243796 2.04910462,10.0031484 L2.05656557,9.99568727 C2.06741671,9.98469359 2.07831173,9.9737272 2.08925061,9.96278832 L5.66352798,6.38851095 C5.66597638,6.38606454 5.66843891,6.38364089 5.67091533,6.38123999 L9.98484185,2.06719708 C12.7126813,-0.660428224 17.1511144,-0.660428224 19.8789538,2.06719708 C22.6067932,4.79525061 22.6067932,9.2336837 19.8789538,11.9615231 L17.86582,13.974871 C17.6025693,14.2381217 17.1757908,14.2381217 16.9125401,13.974871 C16.6495036,13.7116204 16.6495036,13.2848418 16.9125401,13.0215912 L18.9258881,11.0084574 C19.9927007,9.94164477 20.5802774,8.52315328 20.5802774,7.01457421 C20.5802774,5.50572749 19.9927007,4.08745012 18.9258881,3.02063747 C16.7235328,0.818282238 13.1402628,0.818282238 10.9379075,3.02063747 L7.09338845,6.86515656 L8.48635718,8.25815864 Z"></path>
            </g>
        </g>
    </g>
</svg>