<?xml version="1.0" encoding="UTF-8" standalone="no"?>
<svg width="20px" height="25px" viewBox="0 0 20 25" version="1.1" xmlns="http://www.w3.org/2000/svg" xmlns:xlink="http://www.w3.org/1999/xlink">
    <!-- Generator: Sketch 50.2 (55047) - http://www.bohemiancoding.com/sketch -->
    <title>icon/ic/emergency</title>
    <desc>Created with Sketch.</desc>
    <defs>
        <polygon id="path-1" points="8.74071985e-05 0.220379993 18.9742769 0.220379993 18.9742769 16.6566273 8.74071985e-05 16.6566273"></polygon>
    </defs>
    <g id="Page-1" stroke="none" stroke-width="1" fill="none" fill-rule="evenodd">
        <g id="Manual" transform="translate(-354.000000, -3646.000000)">
            <g id="icon/ic/emergency" transform="translate(355.000000, 3645.000000)">
                <g id="Group-3" transform="translate(-0.547357, 8.408504)">
                    <mask id="mask-2" fill="white">
                        <use xlink:href="#path-1"></use>
                    </mask>
                    <g id="Clip-2"></g>
                    <path d="M16.96738,13.1356726 L16.5026108,13.1356726 L16.5026108,6.37051932 C16.5026108,2.97384862 13.3617646,0.220379993 9.48722615,0.220379993 C5.61268769,0.220379993 2.47184154,2.97384862 2.47184154,6.37051932 L2.47184154,9.33668027 C2.53936462,9.32924885 2.60864154,9.32412373 2.68171846,9.32412373 C2.81676462,9.32412373 2.94099538,9.33873031 3.05645692,9.36307461 L3.05645692,6.37051932 C3.05645692,3.25701129 5.93568769,0.732891603 9.48722615,0.732891603 C13.0387646,0.732891603 15.9179954,3.25701129 15.9179954,6.37051932 L15.9179954,13.1356726 L3.05645692,13.1356726 L3.05645692,11.8477309 C2.94099538,11.8723315 2.81676462,11.8866818 2.68171846,11.8866818 C2.60864154,11.8866818 2.53936462,11.8815567 2.47184154,11.8741253 L2.47184154,13.1356726 L2.00707231,13.1356726 C0.898056923,13.1361851 -0.000496923077,13.9249405 8.76923077e-05,14.897175 C0.000672307692,15.8686407 0.898933846,16.6561148 2.00707231,16.6566273 L3.46218,16.6566273 C3.43236462,16.486986 3.43733385,16.3122195 3.47504154,16.1441157 L2.00707231,16.1441157 C1.22076462,16.1436032 0.583826154,15.5847093 0.584410769,14.8953812 C0.584703077,14.2068218 1.22164154,13.6486967 2.00707231,13.6481842 L16.96738,13.6481842 C17.7536877,13.6486967 18.3906262,14.2075906 18.3900415,14.8969187 C18.3894569,15.5854781 17.7528108,16.1436032 16.96738,16.1441157 L6.63605692,16.1441157 C6.65885692,16.3150384 6.64833385,16.4898048 6.60302615,16.6566273 L16.96738,16.6566273 C18.0763954,16.6561148 18.9749492,15.8673595 18.9743646,14.8951249 C18.97378,13.9236592 18.0755185,13.1361851 16.96738,13.1356726" id="Fill-1" stroke="#696969" fill="#727272" mask="url(#mask-2)"></path>
                </g>
                <path d="M9.23214737,5.28474581 L9.23214737,2.55049637 C9.23214737,2.40904317 9.10119352,2.29424056 8.93983968,2.29424056 C8.77848583,2.29424056 8.64753199,2.40904317 8.64753199,2.55049637 L8.64753199,5.28474581 C8.64753199,5.42619902 8.77848583,5.54100162 8.93983968,5.54100162 C9.10119352,5.54100162 9.23214737,5.42619902 9.23214737,5.28474581" id="Fill-4" stroke="#696969" fill="#000000"></path>
                <path d="M14.765532,7.33479226 L17.1244551,5.39493581 C17.2422551,5.29807111 17.2481012,5.13560493 17.1376089,5.03233384 C17.0271166,4.92906275 16.8417935,4.92393764 16.7239935,5.02080233 L14.3650704,6.96065878 C14.2472704,7.05752347 14.2414243,7.21998965 14.3519166,7.32326074 C14.4624089,7.42653183 14.647732,7.43165695 14.765532,7.33479226" id="Fill-6" stroke="#696969" fill="#000000"></path>
                <path d="M3.3129166,7.40398132 C3.47427045,7.40346881 3.60463968,7.28840995 3.60434737,7.14695675 C3.60405506,7.07623015 3.57043968,7.00883487 3.51168583,6.96065878 L1.15276275,5.02080233 C1.04256275,4.91753124 0.857531985,4.91214987 0.739731985,5.00875831 C0.621639678,5.10536675 0.615501216,5.26757667 0.725993524,5.37110402 C0.735055062,5.37956046 0.744701216,5.38750439 0.755224293,5.39493581 L3.11414737,7.33479226 C3.16793199,7.37912451 3.23896275,7.40372507 3.3129166,7.40398132" id="Fill-8" stroke="#696969" fill="#000000"></path>
            </g>
        </g>
    </g>
</svg>