<?xml version="1.0" encoding="UTF-8" standalone="no"?>
<svg width="27px" height="33px" viewBox="0 0 27 33" version="1.1" xmlns="http://www.w3.org/2000/svg" xmlns:xlink="http://www.w3.org/1999/xlink">
    <!-- Generator: Sketch 50.2 (55047) - http://www.bohemiancoding.com/sketch -->
    <title>flag</title>
    <desc>Created with Sketch.</desc>
    <defs>
        <path d="M12.5974246,1.32097818 L12.5974246,6.03885934 C12.5976927,6.14545736 12.671133,6.24837958 12.7732525,6.28487496 L17.0451196,7.76175634 C16.4361547,9.14700544 15.3710023,9.81573733 14.0632824,10.2069468 C12.6743493,10.6223115 11.0482094,10.7118433 9.59039256,11.0274364 C7.95674782,11.3811003 6.46274686,12.0831769 5.61201865,13.8005602 L1.3653464,6.80184908 C1.37258322,6.78609568 1.37821186,6.76955461 1.38196428,6.75248842 C2.03140173,5.16034466 3.17669525,4.54727479 4.62352287,4.19282325 C6.10465837,3.82970735 7.84792751,3.79715032 9.42287362,3.40489063 C10.681544,3.0916605 11.8281776,2.48909289 12.5974246,1.32097818 M12.8654549,5.54733947e-05 C12.7633354,5.54733947e-05 12.6429898,0.0880119645 12.6140425,0.172292662 C11.9849754,1.86578331 10.7844676,2.52585083 9.2971674,2.89631832 C7.81013524,3.26678581 6.05748503,3.29986795 4.48950771,3.68398839 C3.05313327,4.03607691 1.77328854,4.72476311 1.03030852,6.25205537 L0.502556833,5.37432836 C0.452703195,5.28925999 0.351119708,5.23596098 0.251144402,5.24305001 C0.11203667,5.24751348 0,5.37931694 0,5.51374596 C0,5.55943083 0.00777287902,5.60511569 0.0335037889,5.64502431 L10.2186556,22.4486525 C10.2669011,22.5287323 10.3588355,22.578618 10.4531821,22.5799308 C10.5003555,22.5804559 10.5504771,22.5665404 10.5914858,22.5429103 C10.7142437,22.47202 10.7600768,22.2982075 10.6877087,22.1779565 L5.94705654,14.366895 C5.94786063,14.3642694 5.94598442,14.3608562 5.94705654,14.3584932 C6.69003657,12.5395004 8.03742494,11.9059511 9.70778984,11.5444106 C11.1031556,11.2422078 12.7451093,11.1492628 14.2222244,10.7073798 C15.6996074,10.2657595 17.0290378,9.43870592 17.6731146,7.70425643 C17.685176,7.67485008 17.6900005,7.64544373 17.6900005,7.61419948 C17.6900005,7.50602612 17.6189725,7.39627743 17.5141726,7.35978205 L13.1334852,5.84194182 L13.1334852,0.262612163 C13.1375057,0.103765366 12.9981299,5.54733947e-05 12.8654549,5.54733947e-05" id="path-1"></path>
        <filter x="-42.4%" y="-24.4%" width="184.8%" height="166.4%" filterUnits="objectBoundingBox" id="filter-2">
            <feMorphology radius="0.5" operator="dilate" in="SourceAlpha" result="shadowSpreadOuter1"></feMorphology>
            <feOffset dx="0" dy="2" in="shadowSpreadOuter1" result="shadowOffsetOuter1"></feOffset>
            <feGaussianBlur stdDeviation="2" in="shadowOffsetOuter1" result="shadowBlurOuter1"></feGaussianBlur>
            <feComposite in="shadowBlurOuter1" in2="SourceAlpha" operator="out" result="shadowBlurOuter1"></feComposite>
            <feColorMatrix values="0 0 0 0 0   0 0 0 0 0   0 0 0 0 0  0 0 0 0.24 0" type="matrix" in="shadowBlurOuter1"></feColorMatrix>
        </filter>
    </defs>
    <g id="Page-1" stroke="none" stroke-width="1" fill="none" fill-rule="evenodd">
        <g id="style-guide" transform="translate(-490.000000, -3644.000000)">
            <g id="icons" transform="translate(-1.000000, 3513.000000)">
                <g id="flag" transform="translate(496.000000, 133.000000)">
                    <g>
                        <g id="Group-3" transform="translate(0.000000, 1.000000)">
                            <g id="Fill-1">
                                <use fill="black" fill-opacity="1" filter="url(#filter-2)" xlink:href="#path-1"></use>
                                <use stroke="#696969" stroke-width="1" fill="#727272" fill-rule="evenodd" xlink:href="#path-1"></use>
                            </g>
                        </g>
                        <g id="Group-6" transform="translate(1.000000, 0.000000)"></g>
                    </g>
                </g>
            </g>
        </g>
    </g>
</svg>