<?xml version="1.0" encoding="UTF-8" standalone="no"?>
<svg width="18px" height="22px" viewBox="0 0 18 22" version="1.1" xmlns="http://www.w3.org/2000/svg" xmlns:xlink="http://www.w3.org/1999/xlink">
    <!-- Generator: Sketch 50.2 (55047) - http://www.bohemiancoding.com/sketch -->
    <title>ic_location</title>
    <desc>Created with Sketch.</desc>
    <defs></defs>
    <g id="Page-1" stroke="none" stroke-width="1" fill="none" fill-rule="evenodd">
        <g id="Manual" transform="translate(-100.000000, -3647.000000)" fill="#696969">
            <g id="ic_location" transform="translate(100.000000, 3647.000000)">
                <path d="M8.98814699,4.25825607 C6.35235231,4.25825607 4.20240208,6.38681403 4.20240208,9.0065648 C4.20240208,11.6263156 6.35235231,13.7550967 8.98814699,13.7550967 C9.43356531,13.7550967 9.7979627,13.3936055 9.7979627,12.9518946 C9.7979627,12.5099605 9.43356531,12.1484136 8.98814699,12.1484136 C7.24296405,12.1484136 5.82175238,10.7380962 5.82175238,9.0065648 C5.82175238,7.27503344 7.24296405,5.86471596 8.98814699,5.86471596 C10.7335548,5.86471596 12.1548227,7.27503344 12.1548227,9.0065648 C12.1548227,9.75637996 11.8851091,10.479418 11.3946541,11.0462562 C11.1023378,11.3853215 11.1427639,11.8895681 11.4847274,12.179821 C11.8264659,12.4698507 12.334913,12.4295176 12.6272293,12.0904523 C13.3693495,11.2336402 13.7741168,10.1357783 13.7741168,9.0065648 C13.7741168,6.39138846 11.6285522,4.25825607 8.98814699,4.25825607 L8.98814699,4.25825607 Z M15.2315939,2.50424309 C13.4638083,0.808247208 11.1337679,-0.0753977771 8.66884244,0.00504515653 C4.17979943,0.161245028 0.473527677,3.61995646 0.0417159253,8.04710709 C-0.0393050038,8.89956789 -0.00332069107,9.75180554 0.158552491,10.5909893 C0.163162981,10.6265248 0.181211362,10.7293936 0.221581263,10.8900005 C0.3610767,11.4925415 0.558934195,12.0815266 0.819876687,12.6437346 C1.73286617,14.7770901 3.72099945,18.0616945 8.01673922,21.5962744 C8.30005946,21.8283428 8.64202288,21.9444885 8.98814699,21.9444885 C9.33455222,21.9444885 9.67651565,21.8283428 9.95983588,21.5962744 C14.2555757,18.0573432 16.2436527,14.7770901 17.1566984,12.6437346 C17.4175847,12.0815266 17.6201089,11.4925415 17.7549376,10.8900005 C17.7953637,10.7293936 17.8133559,10.6265248 17.8179664,10.5909893 C17.9214213,10.0421142 17.975454,9.47527598 17.975454,8.9174193 C17.975454,6.47618267 16.9992108,4.20007162 15.2315939,2.50424309 L15.2315939,2.50424309 Z M16.2210501,10.3053109 C16.2210501,10.3186437 16.2166645,10.3275694 16.2166645,10.3410696 C16.212054,10.3632722 16.1986723,10.425808 16.1762383,10.5238792 L16.1762383,10.5328049 C16.0637874,11.028349 15.8973037,11.5190955 15.6813978,11.9832323 C15.6767873,11.9922138 15.6724017,12.0011395 15.6724017,12.0057139 C14.8355978,13.9649623 13.0006228,16.9906654 8.99275748,20.3110284 C4.98494843,16.9950167 3.14974848,13.9649623 2.31316944,12.0057139 C2.30872762,11.9967882 2.30411713,11.9878067 2.30411713,11.9832323 C2.08826748,11.5190955 1.92178381,11.0327003 1.80933283,10.5328049 L1.80933283,10.5238792 C1.78689886,10.425808 1.7735172,10.3632722 1.76890671,10.3410696 C1.76890671,10.3275694 1.76452112,10.3186437 1.76452112,10.3053109 C1.62041519,9.61368023 1.58443088,8.90391917 1.65207014,8.19878832 C2.00280474,4.56613718 5.04359161,1.73222523 8.72287513,1.60709798 C10.7425509,1.53585968 12.6542175,2.26324901 14.1070841,3.65571507 C15.5599508,5.04795799 16.3561037,6.91348653 16.3561037,8.9174193 C16.3561037,9.38161185 16.3111233,9.85009989 16.2210501,10.3053109 L16.2210501,10.3053109 Z"></path>
            </g>
        </g>
    </g>
</svg>