<?xml version="1.0" encoding="UTF-8" standalone="no"?>
<svg width="17px" height="21px" viewBox="0 0 17 21" version="1.1" xmlns="http://www.w3.org/2000/svg" xmlns:xlink="http://www.w3.org/1999/xlink">
    <!-- Generator: Sketch 50.2 (55047) - http://www.bohemiancoding.com/sketch -->
    <title>ic_lock</title>
    <desc>Created with Sketch.</desc>
    <defs></defs>
    <g id="Page-1" stroke="none" stroke-width="1" fill="none" fill-rule="evenodd">
        <g id="Manual" transform="translate(-186.000000, -3599.000000)" fill="#696969">
            <g id="ic_lock" transform="translate(184.000000, 3599.000000)">
                <path d="M17.2372842,9.15166296 L16.9277757,9.15166296 L16.9277757,6.4157333 C16.9277757,2.87952247 14.0464051,0 10.4978476,0 C6.95381289,0 4.06791947,2.87506408 4.06791947,6.4157333 C4.06791947,6.74195703 4.32953036,7.00299038 4.65647586,7.00299038 C4.98342135,7.00299038 5.24481428,6.74195703 5.24481428,6.4157333 C5.24481428,3.52751153 7.59898534,1.17451416 10.4978476,1.17451416 C13.3925141,1.17451416 15.7507175,3.52327063 15.7507175,6.4157333 L15.7507175,9.15166296 L3.76271584,9.15166296 C3.13498049,9.15166296 2.625,9.66057198 2.625,10.2868672 L2.625,17.5986827 C2.625,19.4733817 4.15499595,21 6.03389724,21 L14.9661028,21 C16.845004,21 18.375,19.4733817 18.375,17.5986827 L18.375,10.2868672 C18.375,9.66057198 17.8650195,9.15166296 17.2372842,9.15166296 L17.2372842,9.15166296 Z M17.1981052,17.5986827 C17.1981052,18.8251752 16.1998316,19.8257577 14.9661028,19.8257577 L6.0383655,19.8257577 C4.80888695,19.8257577 3.80636307,18.8296335 3.80636307,17.5986827 L3.80636307,10.3261771 L17.1981052,10.3261771 L17.1981052,17.5986827 Z M10.9374188,17.5 C12.1459434,17.5 13.125,16.5167201 13.125,15.3124188 C13.125,14.1038941 12.1417201,13.125 10.9374188,13.125 C9.72883999,13.125 8.75,14.1083341 8.75,15.3124188 C8.75,16.5167201 9.72883999,17.5 10.9374188,17.5 L10.9374188,17.5 Z M10.9374188,14.2902084 C11.5006389,14.2902084 11.9553517,14.7493611 11.9553517,15.3081954 C11.9553517,15.8669757 11.5006389,16.3304059 10.9374188,16.3304059 C10.3743611,16.3304059 9.91964827,15.871199 9.91964827,15.3124188 C9.91964827,14.7536386 10.3743611,14.2902084 10.9374188,14.2902084 L10.9374188,14.2902084 Z"></path>
            </g>
        </g>
    </g>
</svg>