<?xml version="1.0" encoding="UTF-8" standalone="no"?>
<svg width="18px" height="22px" viewBox="0 0 18 22" version="1.1" xmlns="http://www.w3.org/2000/svg" xmlns:xlink="http://www.w3.org/1999/xlink">
    <!-- Generator: Sketch 50.2 (55047) - http://www.bohemiancoding.com/sketch -->
    <title>icon/ic/member</title>
    <desc>Created with Sketch.</desc>
    <defs></defs>
    <g id="Page-1" stroke="none" stroke-width="1" fill="none" fill-rule="evenodd">
        <g id="Manual" transform="translate(-273.000000, -3647.000000)" fill="#696969">
            <g id="icon/ic/member" transform="translate(273.000000, 3647.000000)">
                <path d="M8.90664945,11.6297548 L9.04656251,11.6297548 C10.3281967,11.6075912 11.3648873,11.1486157 12.1303358,10.2710938 C13.8141585,8.33746053 13.5343871,5.02300269 13.5036051,4.70669831 C13.3942553,2.33213226 12.2920095,1.19622085 11.382438,0.666076887 C10.7043053,0.269526974 9.91261281,0.0556873912 9.02906654,0.037867426 L8.95470869,0.037867426 C8.46925031,0.037867426 7.5156655,0.118112957 6.60155596,0.648256921 C5.68296308,1.1783452 4.56322126,2.31431229 4.45387148,4.70669831 C4.42330821,5.02300269 4.14331808,8.33746053 5.82735947,10.2710938 C6.58832463,11.1486157 7.62501528,11.6075912 8.90664945,11.6297548 L8.90664945,11.6297548 Z M5.62167252,4.81807309 C5.62167252,4.80481949 5.62615586,4.79128745 5.62615586,4.78237747 C5.77055225,1.5882044 7.99685923,1.24517007 8.95044404,1.24517007 L9.00276792,1.24517007 C10.183855,1.27190002 12.1914077,1.76200475 12.3270561,4.78237747 C12.3270561,4.79585382 12.3270561,4.80916311 12.3315394,4.81807309 C12.3358041,4.84914665 12.6420928,7.8787078 11.2510542,9.47359468 C10.7000406,10.1062034 9.96515539,10.4178858 8.99850327,10.4268514 L8.95470869,10.4268514 C7.99259459,10.4178858 7.25317133,10.1062034 6.7064224,9.47359468 C5.31992178,7.88761778 5.61740788,4.84480304 5.62167252,4.81807309 Z M17.9651858,17.1271584 C17.9694504,17.3588179 17.9739337,18.5482449 17.7552342,19.1408144 C17.7114396,19.2567556 17.6283884,19.354654 17.5277866,19.4214232 C17.3966762,19.5062908 14.2515577,21.5510204 8.98975529,21.5510204 C3.72795292,21.5510204 0.582834362,19.5106344 0.451723968,19.4214232 C0.346638823,19.354654 0.268016327,19.2567556 0.224276412,19.1408144 C-0.00749046037,18.5439013 -0.0032258187,17.3544743 0.00125752254,17.1228147 L0.00125752254,17.1093384 C0.00557683911,17.0738655 0.00557683911,17.0381699 0.00557683911,16.9979636 C0.0318207879,16.1204417 0.0886280019,14.0578364 1.98688562,13.3939313 C2.00011694,13.3895877 2.01312957,13.3850214 2.03068021,13.3806777 C4.01220769,12.868131 5.6437065,11.710056 5.66120247,11.696524 C5.92796127,11.5051264 6.29532188,11.5718956 6.48345819,11.8435944 C6.67159449,12.1152931 6.6058206,12.4896795 6.33906179,12.681077 C6.26475861,12.730249 4.52391001,13.9686252 2.34566227,14.5387527 C1.32652226,14.9085727 1.21290783,16.0179769 1.18212587,17.0336035 C1.18212587,17.0738655 1.17786122,17.1093384 1.17786122,17.1449783 C1.16911324,17.5458719 1.19962183,18.165227 1.26971505,18.5217377 C1.98262098,18.9315412 4.77765619,20.3526834 8.98527195,20.3526834 C13.2106024,20.3526834 15.9881416,18.9358848 16.6967829,18.5260813 C16.7666028,18.1697934 16.7929014,17.5504382 16.7885821,17.1495447 C16.7840987,17.1139048 16.7840987,17.0782091 16.7840987,17.0381699 C16.7535901,16.0223205 16.639757,14.9131391 15.620781,14.5433191 C13.4425333,13.9729688 11.7016847,12.7389362 11.6271628,12.6856434 C11.360404,12.4940231 11.2948488,12.1198595 11.4829851,11.847938 C11.6709574,11.5762392 12.0385367,11.50947 12.3052408,11.7010903 C12.3227915,11.7143996 13.9630383,12.8726974 15.9355991,13.3850214 C15.9488304,13.3895877 15.9663263,13.3939313 15.9793936,13.3984977 C17.8775966,14.0578364 17.9346225,16.1204417 17.9607024,17.00253 C17.9607024,17.0425135 17.9651858,17.0782091 17.9651858,17.1139048 L17.9651858,17.1271584 Z" id="ic_profile"></path>
            </g>
        </g>
    </g>
</svg>