<?xml version="1.0" encoding="UTF-8" standalone="no"?>
<svg width="26px" height="29px" viewBox="0 0 26 29" version="1.1" xmlns="http://www.w3.org/2000/svg" xmlns:xlink="http://www.w3.org/1999/xlink">
    <!-- Generator: Sketch 50.2 (55047) - http://www.bohemiancoding.com/sketch -->
    <title>icon/notification</title>
    <desc>Created with Sketch.</desc>
    <defs>
        <path d="M16.9354475,15.6036051 C16.7997503,15.4110325 16.6685927,15.2314512 16.5417013,15.0476464 C16.4760679,14.9493285 16.4104891,14.8551272 16.3446915,14.7609259 C16.0035068,14.2605685 15.6490313,13.7430495 15.3253489,13.2255305 C14.756416,12.3187495 14.4282486,11.3393127 14.3188595,10.2274488 C14.2399899,9.41048515 14.1220684,8.59790547 13.9601178,7.81077403 C13.7368546,6.7116877 13.2337193,5.8435068 12.4637291,5.23183997 C11.5886161,4.5261857 10.4596655,4.29078941 9.2782082,4.56457193 C8.58681418,4.72704509 7.87813668,4.46625401 7.55423546,3.93601088 C7.3967698,3.67933643 7.31795493,3.38422228 7.32670606,3.08060757 C7.3484745,2.25503645 8.05737078,1.56649024 8.90196428,1.54082815 C9.58881864,1.52366662 10.2189001,1.93426021 10.4639317,2.56308857 C10.6171312,2.96069072 11.0722447,3.16181742 11.4792269,3.00768444 C11.8859904,2.85814925 12.0917514,2.41333952 11.9342857,2.01552352 C11.4529189,0.775188719 10.2146339,-0.0332208738 8.85388775,0.00104872143 C8.04435347,0.0223268788 7.27414458,0.351710617 6.6921397,0.920553819 C6.10592334,1.49383443 5.77348976,2.24231232 5.75144785,3.0334 C5.73394559,3.62795876 5.89163002,4.2139635 6.20224047,4.722875 C6.88914953,5.8435068 8.27188287,6.37813387 9.6456463,6.05735763 C10.1357643,5.94187819 10.8446606,5.91183214 11.4659909,6.41240347 C11.9561089,6.80583553 12.2667193,7.35762413 12.4199188,8.10610203 C12.5686333,8.84158849 12.6825074,9.59867388 12.7568373,10.3642598 C12.8837834,11.6943585 13.299298,12.9262997 13.9864259,14.025386 C14.3276106,14.5641832 14.6908372,15.0946402 15.040773,15.6079891 C15.1065706,15.7019765 15.1721494,15.8003479 15.2377829,15.8944957 C15.3734254,16.0954086 15.5178737,16.2921513 15.6535163,16.4802866 C15.8328051,16.728407 16.0035068,16.96792 16.1609725,17.2074863 C16.2265512,17.3058577 16.3316742,17.4898229 16.3098511,17.6138564 C16.2923488,17.7078438 16.195977,17.8404848 16.0297602,17.9772424 C15.6928417,18.2596324 15.2508002,18.4264895 14.8177286,18.559077 C13.4394802,18.9909488 11.9080324,19.2348991 9.98710448,19.324663 L7.89995982,19.324663 C5.9834622,19.2390692 4.44752938,18.9953327 3.069281,18.559077 C2.6404756,18.4221056 2.19416793,18.2596324 1.8572494,17.9772424 C1.69103261,17.8363147 1.59466079,17.7078438 1.57715853,17.6138564 C1.55539009,17.4898229 1.66477922,17.3058577 1.72609183,17.2074863 C1.88782367,16.9637499 2.05425923,16.728407 2.23349333,16.4802866 C2.36913585,16.2921513 2.5135842,16.0954086 2.64928142,15.8944957 C2.71486021,15.8003479 2.78043899,15.7019765 2.84623656,15.6079891 C3.19622709,15.0946402 3.55939901,14.5641832 3.90058372,14.025386 C4.59197773,12.9304698 5.00328087,11.6987425 5.13017227,10.3642598 C5.20450218,9.59867388 5.31389132,8.84158849 5.4670908,8.10610203 C5.52840341,7.79804991 5.62029028,7.5200973 5.73843054,7.27614696 C5.92214959,6.89126894 5.7559328,6.43368163 5.36218662,6.24971645 C4.96822166,6.07013522 4.50009086,6.23260839 4.31188686,6.61770026 C4.14140389,6.97247879 4.00570667,7.3747322 3.91814067,7.80243385 C3.75619006,8.58935144 3.6380498,9.40193112 3.55939901,10.2188947 C3.45427605,11.3265886 3.12610865,12.3101955 2.5529096,13.2169764 C2.22922715,13.7344954 1.87475166,14.2520144 1.53356696,14.7525858 C1.46776939,14.8465732 1.40219061,14.9449446 1.33661182,15.0390924 C1.20966573,15.2228972 1.07850816,15.4024784 0.942810944,15.5950511 C0.763358071,15.8472881 0.575154067,16.1083465 0.395865278,16.3777451 C-0.251718391,17.3870676 -0.103003864,18.3709418 0.828936856,19.1534219 C1.37588252,19.6153932 1.9972128,19.850736 2.58791412,20.0389248 C4.10634468,20.5180041 5.77775594,20.7830187 7.84739834,20.8771665 L10.039666,20.8771665 C12.1092537,20.7830187 13.7806649,20.5180041 15.2990955,20.0389248 C15.8896327,19.8549061 16.5111271,19.6197771 17.0580727,19.1534219 C17.9855285,18.3665578 18.138728,17.3828975 17.4823932,16.3862992 C17.3028856,16.1169006 17.1191666,15.8558956 16.9354475,15.6036051 Z" id="path-1"></path>
        <filter x="-39.1%" y="-23.9%" width="178.3%" height="167.1%" filterUnits="objectBoundingBox" id="filter-2">
            <feOffset dx="0" dy="2" in="SourceAlpha" result="shadowOffsetOuter1"></feOffset>
            <feGaussianBlur stdDeviation="2" in="shadowOffsetOuter1" result="shadowBlurOuter1"></feGaussianBlur>
            <feColorMatrix values="0 0 0 0 0   0 0 0 0 0   0 0 0 0 0  0 0 0 0.24 0" type="matrix" in="shadowBlurOuter1"></feColorMatrix>
        </filter>
    </defs>
    <g id="Page-1" stroke="none" stroke-width="1" fill="none" fill-rule="evenodd">
        <g id="Manual" transform="translate(-52.000000, -3720.000000)">
            <g id="icon/notification" transform="translate(56.000000, 3722.000000)">
                <g id="ic_notification">
                    <use fill="black" fill-opacity="1" filter="url(#filter-2)" xlink:href="#path-1"></use>
                    <use fill="#696969" fill-rule="evenodd" xlink:href="#path-1"></use>
                </g>
            </g>
        </g>
    </g>
</svg>