<?xml version="1.0" encoding="UTF-8" standalone="no"?>
<svg width="20px" height="20px" viewBox="0 0 20 20" version="1.1" xmlns="http://www.w3.org/2000/svg" xmlns:xlink="http://www.w3.org/1999/xlink">
    <!-- Generator: Sketch 50.2 (55047) - http://www.bohemiancoding.com/sketch -->
    <title>ic_search</title>
    <desc>Created with Sketch.</desc>
    <defs></defs>
    <g id="Page-1" stroke="none" stroke-width="1" fill="none" fill-rule="evenodd">
        <g id="Manual" transform="translate(-305.000000, -3599.000000)" fill="#696969">
            <g id="ic_search" transform="translate(305.000000, 3599.000000)">
                <path d="M19.2514703,15.6252064 L17.4821268,13.854674 C17.1933196,13.5658791 16.7230928,13.5658791 16.4302644,13.854674 C16.141715,14.1436236 16.141715,14.6141663 16.4302644,14.9071915 L18.1996595,16.6777239 C18.6203426,17.0986896 18.6203426,17.7796636 18.1996595,18.2006294 C17.9976697,18.4027548 17.7253599,18.514187 17.4366043,18.514187 C17.1480034,18.514187 16.8799726,18.4027548 16.6737554,18.2006294 L13.2834417,14.8080376 L15.3291162,12.7609884 C15.6178718,12.4722452 15.6178718,12.0017024 15.3291162,11.7086773 C15.040309,11.419676 14.5702885,11.419676 14.2774601,11.7086773 L13.5144565,12.4722452 L12.4420755,11.3991436 C14.6609209,8.65043335 14.4959987,4.6016818 11.9430299,2.05127941 C10.6231883,0.730499381 8.86626944,0 6.99381735,0 C5.12559271,0 3.36851914,0.726269088 2.04460478,2.05127941 C-0.681534926,4.77925093 -0.681534926,9.22415394 2.04460478,11.9521255 C3.36449791,13.2728539 5.12136526,14.0033533 6.99381735,14.0033533 C8.61478758,14.0033533 10.1488888,13.454447 11.3904194,12.4514548 L12.4625941,13.5245563 L11.6997452,14.2881242 C11.5594144,14.4283946 11.4810519,14.6181903 11.4810519,14.8122678 C11.4810519,15.0061391 11.5594144,15.2002167 11.6997452,15.3364115 L15.6178718,19.2571709 C16.1291873,19.7482976 16.7849064,20 17.4408318,20 C18.0965509,20 18.7522184,19.7482976 19.2514703,19.2489166 C20.2495099,18.25 20.2495099,16.6239166 19.2514703,15.6252064 L19.2514703,15.6252064 Z M10.9036953,10.8955324 C9.86436064,11.9355654 8.47863268,12.509286 7.00608727,12.509286 C5.53379964,12.509286 4.14807168,11.9355654 3.10873704,10.8955324 C0.95995391,8.745357 0.95995391,5.24556335 3.10873704,3.09533636 C4.14807168,2.05530334 5.53379964,1.48158275 7.00608727,1.48158275 C8.47863268,1.48158275 9.86436064,2.05530334 10.9036953,3.09533636 C13.0524784,5.24556335 13.0524784,8.745357 10.9036953,10.8955324 L10.9036953,10.8955324 Z"></path>
            </g>
        </g>
    </g>
</svg>