<?xml version="1.0" encoding="UTF-8" standalone="no"?>
<svg width="21px" height="21px" viewBox="0 0 21 21" version="1.1" xmlns="http://www.w3.org/2000/svg" xmlns:xlink="http://www.w3.org/1999/xlink">
    <!-- Generator: Sketch 50.2 (55047) - http://www.bohemiancoding.com/sketch -->
    <title>ic_setting</title>
    <desc>Created with Sketch.</desc>
    <defs></defs>
    <g id="Page-1" stroke="none" stroke-width="1" fill="none" fill-rule="evenodd">
        <g id="Manual" transform="translate(-340.000000, -3599.000000)" fill="#696969">
            <g id="ic_setting" transform="translate(340.000000, 3599.000000)">
                <path d="M14.0229388,9.72757203 C13.5980793,9.72757203 13.2504572,10.0751941 13.2504572,10.5001073 C13.2504572,12.0147119 12.0147119,13.2504572 10.5001073,13.2504572 C8.98528811,13.2504572 7.74948917,12.0147119 7.74948917,10.5001073 C7.74948917,8.98528811 8.98528811,7.74948917 10.5001073,7.74948917 C10.9248059,7.74948917 11.2723743,7.40192072 11.2723743,6.97700756 C11.2723743,6.55230895 10.9248059,6.2047405 10.5001073,6.2047405 C8.13149264,6.2047405 6.2047405,8.13149264 6.2047405,10.5001073 C6.2047405,12.8687219 8.13149264,14.7952595 10.5001073,14.7952595 C12.8687219,14.7952595 14.7952595,12.8687219 14.7952595,10.5001073 C14.7952595,10.0751941 14.4476374,9.72757203 14.0229388,9.72757203 L14.0229388,9.72757203 Z M19.3994687,8.20856917 L18.7344223,8.20856917 C18.549857,7.54357632 18.2837633,6.90411473 17.9447768,6.29919544 L18.4167833,5.8271889 C19.039081,5.20489119 19.039081,4.18787801 18.4167833,3.56579485 L17.4341515,2.58316306 C17.133891,2.28274162 16.7305936,2.11550112 16.3056804,2.11550112 C15.8807673,2.11550112 15.4774699,2.28274162 15.1772093,2.58316306 L14.7051492,3.05522323 C14.1044672,2.71183848 13.4650056,2.45014303 12.7956145,2.26552411 L12.7956145,1.60053126 C12.7956145,0.720936351 12.0790228,0 11.1950833,0 L9.80491673,0 C8.92510727,0 8.20438547,0.716538108 8.20438547,1.60053126 L8.20438547,2.26552411 C7.53917808,2.45014303 6.89993104,2.71623672 6.2947972,3.05522323 L5.82279066,2.58316306 C5.52253014,2.28274162 5.1191791,2.11550112 4.69431957,2.11550112 C4.26522272,2.11550112 3.86605537,2.28274162 3.56579485,2.58316306 L2.58316306,3.56579485 C1.96091898,4.19227626 1.96091898,5.20489119 2.58316306,5.8271889 L3.05522323,6.29919544 C2.71183848,6.89993104 2.45014303,7.53917808 2.26552411,8.20856917 L1.60053126,8.20856917 C0.720936351,8.20856917 0,8.92510727 0,9.80910043 L0,11.1994815 C0,12.0790228 0.716538108,12.8000128 1.60053126,12.8000128 L2.26552411,12.8000128 C2.45014303,13.4650056 2.71623672,14.1044672 3.05522323,14.7093329 L2.58316306,15.181393 C1.96091898,15.7950552 1.96091898,16.8076701 2.58316306,17.4341515 L3.56579485,18.4167833 C3.86605537,18.7172584 4.26962096,18.8844452 4.69431957,18.8844452 C5.12341643,18.8844452 5.52253014,18.7172584 5.82279066,18.4167833 L6.2947972,17.9447768 C6.8955328,18.2881615 7.53494074,18.549857 8.20438547,18.7344223 L8.20438547,19.3994687 C8.20438547,20.27901 8.92092358,21 9.80491673,21 L11.1950833,21 C12.0748391,21 12.7956145,20.2834083 12.7956145,19.3994687 L12.7956145,18.7344223 C13.4608219,18.549857 14.100069,18.2837633 14.7051492,17.9447768 L15.1772093,18.4167833 C15.4774699,18.7172584 15.8807673,18.8844452 16.3056804,18.8844452 C16.7305936,18.8844452 17.133891,18.7172584 17.4341515,18.4167833 L18.4167833,17.4341515 C19.039081,16.8120683 19.039081,15.7950552 18.4167833,15.1728111 L17.9447768,14.7007509 C18.2881615,14.100069 18.549857,13.4608219 18.7344223,12.7913772 L19.3994687,12.7913772 C20.27901,12.7913772 21,12.0748391 21,11.1908996 L21,9.80051849 C21,8.92510727 20.2834083,8.20856917 19.3994687,8.20856917 L19.3994687,8.20856917 Z M19.3994687,11.2510268 L17.4898805,11.2510268 L17.3656569,11.8730563 C17.1852217,12.7742133 16.8378678,13.6238251 16.3228443,14.3875102 L15.9710922,14.9152993 L17.3226936,16.2671153 C17.3440412,16.2885166 17.3440412,16.3228443 17.3226936,16.3442455 L16.3400618,17.3226936 C16.3356636,17.3268773 16.3228443,17.3398575 16.3014967,17.3398575 C16.2799346,17.3398575 16.2671153,17.3268773 16.2627171,17.3226936 L14.9111157,15.9710922 L14.3833265,16.3228443 C13.6152432,16.8378678 12.7698151,17.1852217 11.8688726,17.3656569 L11.2466285,17.4898805 L11.2466285,19.3994687 C11.2466285,19.4293982 11.2208291,19.4551977 11.1908996,19.4551977 L9.80051849,19.4551977 C9.77053535,19.4551977 9.74478954,19.4293982 9.74478954,19.3994687 L9.74478954,17.4898805 L9.12249183,17.3656569 C8.22154935,17.1852217 7.37193758,16.8378678 6.6080379,16.3228443 L6.08024877,15.9710922 L4.73722926,17.3226936 C4.73283102,17.3268773 4.72006539,17.3398575 4.69871782,17.3398575 C4.67710206,17.3398575 4.66433643,17.3268773 4.65993819,17.3226936 L3.6773064,16.3400618 C3.65590519,16.3184461 3.65590519,16.2843329 3.6773064,16.2627171 L5.02912239,14.9111157 L4.67710206,14.3833265 C4.16234675,13.6152432 3.81472466,12.7698151 3.63455762,11.8688726 L3.5100659,11.2466285 L1.60053126,11.2466285 C1.57054812,11.2466285 1.54480231,11.2208291 1.54480231,11.1908996 L1.54480231,9.80051849 C1.54480231,9.77053535 1.57054812,9.74478954 1.60053126,9.74478954 L3.5100659,9.74478954 L3.63455762,9.12249183 C3.81472466,8.22154935 4.16234675,7.37193758 4.67710206,6.6080379 L5.02912239,6.08024877 L3.6773064,4.73722926 C3.65590519,4.71588169 3.65590519,4.68150031 3.6773064,4.65993819 L4.65993819,3.6773064 C4.66433643,3.67306906 4.67710206,3.66008888 4.69871782,3.66008888 C4.72006539,3.66008888 4.73283102,3.67306906 4.73722926,3.6773064 L6.08888435,5.02912239 L6.61661984,4.67710206 C7.38475685,4.16234675 8.23013128,3.81472466 9.13107376,3.63455762 L9.75337148,3.5100659 L9.75337148,1.60053126 C9.75337148,1.57054812 9.77911729,1.54480231 9.80910043,1.54480231 L11.1994815,1.54480231 C11.229411,1.54480231 11.2552105,1.57054812 11.2552105,1.60053126 L11.2552105,3.5100659 L11.8774545,3.63455762 C12.778397,3.81472466 13.6280088,4.16234675 14.3919085,4.67710206 L14.9196976,5.02912239 L16.2627171,3.6773064 C16.2671153,3.67306906 16.2799346,3.66008888 16.3014967,3.66008888 C16.3228443,3.66008888 16.3356636,3.67306906 16.3400618,3.6773064 L17.3226936,4.65993819 C17.3440412,4.68150031 17.3440412,4.71588169 17.3226936,4.73722926 L15.9710922,6.08888435 L16.3228443,6.61661984 C16.8378678,7.38475685 17.1852217,8.23013128 17.3656569,9.13107376 L17.4898805,9.75337148 L19.3994687,9.75337148 C19.4293982,9.75337148 19.4551977,9.77911729 19.4551977,9.80910043 L19.4551977,11.1950833 C19.4551977,11.2252273 19.4293982,11.2510268 19.3994687,11.2510268 L19.3994687,11.2510268 Z"></path>
            </g>
        </g>
    </g>
</svg>