<?xml version="1.0" encoding="UTF-8" standalone="no"?>
<svg width="24px" height="21px" viewBox="0 0 24 21" version="1.1" xmlns="http://www.w3.org/2000/svg" xmlns:xlink="http://www.w3.org/1999/xlink">
    <!-- Generator: Sketch 50.2 (55047) - http://www.bohemiancoding.com/sketch -->
    <title>ic_submit</title>
    <desc>Created with Sketch.</desc>
    <defs></defs>
    <g id="Page-1" stroke="none" stroke-width="1" fill="none" fill-rule="evenodd">
        <g id="Manual" transform="translate(-387.000000, -3599.000000)" fill="#696969">
            <g id="ic_submit" transform="translate(387.000000, 3599.000000)">
                <path d="M23.6756211,0.199792197 C23.4198535,-0.0132809855 23.0658366,-0.0581026064 22.7608214,0.0758043108 L0.85837874,9.70712132 C0.302391482,9.95026157 -0.0319509598,10.5057893 0.00241782008,11.1158097 C0.0367866,11.7258301 0.435193924,12.2365362 1.01571274,12.4101812 L6.41628387,14.0566784 C6.88367468,14.2005043 7.38033122,13.9326905 7.51817524,13.4616605 C7.6558348,12.9903825 7.39521001,12.4895955 6.92788068,12.3506051 L2.40767907,10.9719837 L19.5195195,3.44839881 L9.42653402,13.6054864 C9.42149244,13.610322 9.4166968,13.620303 9.40685958,13.6253865 L9.36744923,13.6648147 C9.35761201,13.6747337 9.34777479,13.6897982 9.34297915,13.6997172 C9.33793758,13.7096363 9.32810036,13.7195553 9.32330471,13.7294743 C9.31826314,13.7343099 9.31826314,13.7393934 9.31826314,13.7393934 C9.30836444,13.7493744 9.3035688,13.764129 9.29373158,13.774048 C9.28389436,13.7888025 9.27885279,13.8038671 9.26901557,13.8186216 C9.26421992,13.8285407 9.25917835,13.8435432 9.25438271,13.8534622 C9.24448401,13.8682788 9.23968836,13.8881168 9.22985114,13.9028714 C9.22480957,13.9127904 9.22001393,13.9227095 9.22001393,13.9326905 C9.21497235,13.9525285 9.20513513,13.9675311 9.20033949,13.9873691 C9.19529792,13.9973502 9.19529792,14.0072692 9.19044079,14.0171882 L9.175562,14.0765164 C9.175562,14.0864355 9.17076635,14.0963545 9.17076635,14.1062735 C9.16572478,14.1261736 9.16572478,14.1460116 9.16572478,14.1658497 L9.16572478,14.2799186 L9.43132966,19.3634219 C9.4609028,19.9189496 9.81516561,20.3998986 10.3365382,20.5885462 C10.4888306,20.6430389 10.6413075,20.6677125 10.7938458,20.6677125 C11.1725787,20.6677125 11.5414744,20.509132 11.8070793,20.211499 L13.828566,17.959879 L17.8127008,20.7420432 C18.0586312,20.9108527 18.3391149,21 18.6292513,21 C18.8062598,21 18.9883098,20.9653454 19.1605226,20.8958502 C19.6079315,20.7173696 19.9326212,20.3255679 20.0311164,19.8542899 L23.9806364,1.07762643 C24.0495584,0.750484394 23.9313888,0.413175349 23.6756211,0.199792197 L23.6756211,0.199792197 Z M11.1528428,18.2921046 L11.0349191,16.0058299 L12.3678622,16.9381568 L11.1528428,18.2921046 Z M18.407791,18.9815392 L11.4283464,14.1062735 L21.5753751,3.8947552 L18.407791,18.9815392 Z" id="ic_plane"></path>
            </g>
        </g>
    </g>
</svg>