<?xml version="1.0" encoding="UTF-8" standalone="no"?>
<svg width="23px" height="23px" viewBox="0 0 23 23" version="1.1" xmlns="http://www.w3.org/2000/svg" xmlns:xlink="http://www.w3.org/1999/xlink">
    <!-- Generator: Sketch 50.2 (55047) - http://www.bohemiancoding.com/sketch -->
    <title>Twitter</title>
    <desc>Created with Sketch.</desc>
    <defs></defs>
    <g id="Page-1" stroke="none" stroke-width="1" fill="none" fill-rule="evenodd">
        <g id="Manual" transform="translate(-638.000000, -3597.000000)">
            <g id="Icons" transform="translate(55.000000, 3598.000000)">
                <g id="Social" transform="translate(584.001161, 0.000000)">
                    <g id="Twitter">
                        <circle id="Oval-2" stroke="#696969" fill="#FFFFFF" cx="10.5" cy="10.5" r="10.5"></circle>
                        <path d="M14.4593395,6.96962919 C14.4593395,6.96962919 14.4593395,6.86465568 14.4593395,6.96962919 C13.9167979,6.44476162 13.265748,6.23481459 12.6146982,6.33978811 L12.6146982,6.33978811 L12.6146982,6.33978811 C13.265748,6.23481459 13.591273,6.02486757 13.6997813,5.91989405 C13.6997813,5.81492054 13.6997813,5.70994703 13.591273,5.70994703 C13.265748,5.70994703 12.9402231,5.81492054 12.7232065,5.91989405 C13.0487314,5.70994703 13.1572397,5.60497351 13.1572397,5.5 C12.8317148,5.5 12.5061899,5.70994703 12.0721566,6.02486757 C12.1806649,5.81492054 12.2891732,5.70994703 12.1806649,5.60497351 C11.9636483,5.70994703 11.85514,5.81492054 11.7466317,6.02486757 C11.4211067,6.33978811 11.2040901,6.54973513 11.0955818,6.86465568 L11.0955818,6.86465568 C10.6615486,7.59947027 10.3360236,8.22931135 10.119007,8.96412595 L10.0104987,8.96412595 C9.79348206,8.6492054 9.46795713,8.33428486 9.03392388,8.12433784 C8.59989064,7.8094173 8.05734908,7.59947027 7.40629921,7.28454973 C6.75524934,6.96962919 6.10419948,6.65470865 5.34464129,6.44476162 C5.34464129,7.17957622 5.67016623,7.8094173 6.42972441,8.22931135 L6.42972441,8.22931135 C6.21270779,8.22931135 5.88718285,8.22931135 5.67016623,8.33428486 C5.67016623,8.96412595 6.21270779,9.48899351 7.18928259,9.69894054 L7.18928259,9.69894054 C6.86375766,9.69894054 6.53823272,9.80391405 6.21270779,10.0138611 C6.53823272,10.6437022 7.08077428,10.8536492 7.94884077,10.8536492 C7.84033246,10.9586227 7.62331584,11.0635962 7.62331584,11.0635962 C7.51480752,11.1685697 7.40629921,11.3785168 7.51480752,11.5884638 C7.73182415,11.9033843 7.94884077,12.0083578 8.49138233,12.0083578 L8.49138233,12.0083578 L8.49138233,12.0083578 C7.73182415,12.7431724 6.75524934,13.1630665 5.67016623,13.058093 L5.67016623,13.058093 C5.01911636,13.058093 4.25955818,12.7431724 3.5,12.1133314 C4.25955818,13.1630665 5.34464129,14.0028546 6.64674103,14.5277222 C8.16585739,14.9476162 9.68497375,15.0525897 11.0955818,14.6326957 L11.0955818,14.6326957 C12.5061899,14.2128016 13.8082896,13.3730135 14.7848644,12.2183049 C15.2188976,11.5884638 15.5444226,10.9586227 15.6529309,10.3287816 C16.4124891,10.3287816 16.9550306,10.1188346 17.2805556,9.69894054 L17.2805556,9.69894054 C17.0635389,9.80391405 16.5209974,9.80391405 15.7614392,9.59396703 L15.7614392,9.59396703 L15.7614392,9.59396703 C16.5209974,9.48899351 17.0635389,9.27904649 17.1720472,8.85915243 C16.6295057,9.06909946 16.0869641,9.06909946 15.5444226,8.85915243 C15.4359143,8.12433784 15.1103893,7.49449676 14.4593395,6.96962919 L14.4593395,6.96962919 Z" fill="#696969"></path>
                    </g>
                </g>
            </g>
        </g>
    </g>
</svg>