<?xml version="1.0" encoding="UTF-8" standalone="no"?>
<svg width="23px" height="23px" viewBox="0 0 23 23" version="1.1" xmlns="http://www.w3.org/2000/svg" xmlns:xlink="http://www.w3.org/1999/xlink">
    <!-- Generator: Sketch 50.2 (55047) - http://www.bohemiancoding.com/sketch -->
    <title>Facebook</title>
    <desc>Created with Sketch.</desc>
    <defs></defs>
    <g id="Page-1" stroke="none" stroke-width="1" fill="none" fill-rule="evenodd">
        <g id="Manual" transform="translate(-730.000000, -3597.000000)">
            <g id="Icons" transform="translate(55.000000, 3598.000000)">
                <g id="Social" transform="translate(584.001161, 0.000000)">
                    <g id="Facebook" transform="translate(92.000000, 0.000000)">
                        <circle id="Oval-2" stroke="#737373" fill="#FFFFFF" cx="10.5" cy="10.5" r="10.5"></circle>
                        <path d="M13.5137599,6.21666667 C13.137242,6.11666667 12.7042464,6.05 12.3089026,6.05 C11.8194293,6.05 10.7651791,6.33333333 10.7651791,6.88333333 L10.7651791,8.2 L13.2690232,8.2 L13.2690232,10.4166667 L10.7651791,10.4166667 L10.7651791,16.5333333 L8.24250911,16.5333333 L8.24250911,10.4166667 L7,10.4166667 L7,8.2 L8.24250911,8.2 L8.24250911,7.08333333 C8.24250911,5.4 9.1085003,4 11.1981747,4 C11.9135587,4 13.1937196,4.03333333 13.8902778,4.25 L13.5137599,6.21666667 Z" fill="#696969"></path>
                    </g>
                </g>
            </g>
        </g>
    </g>
</svg>