<?xml version="1.0" encoding="UTF-8" standalone="no"?>
<svg width="23px" height="23px" viewBox="0 0 23 23" version="1.1" xmlns="http://www.w3.org/2000/svg" xmlns:xlink="http://www.w3.org/1999/xlink">
    <!-- Generator: Sketch 50.2 (55047) - http://www.bohemiancoding.com/sketch -->
    <title>instagram</title>
    <desc>Created with Sketch.</desc>
    <defs></defs>
    <g id="Page-1" stroke="none" stroke-width="1" fill="none" fill-rule="evenodd">
        <g id="Manual" transform="translate(-684.000000, -3597.000000)">
            <g id="Icons" transform="translate(55.000000, 3598.000000)">
                <g id="Social" transform="translate(584.001161, 0.000000)">
                    <g id="instagram" transform="translate(46.000000, 0.000000)">
                        <circle id="Oval-2" stroke="#6B6B6B" fill="#FFFFFF" cx="10.5" cy="10.5" r="10.5"></circle>
                        <path d="M14.865625,14.7225 L6.409375,14.7225 C6.21488125,14.7225 6.05703125,14.56458 6.05703125,14.37 L6.05703125,9.0825 L7.46640625,9.0825 C7.28283516,9.346875 7.22082266,9.8400225 7.22082266,10.1530425 C7.22082266,12.04068 8.75950781,13.5765225 10.6505367,13.5765225 C12.541918,13.5765225 14.0806031,12.04068 14.0806031,10.1530425 C14.0806031,9.8400225 14.0362078,9.3542775 13.8085938,9.0825 L15.2179688,9.0825 L15.2179688,14.37 C15.2179688,14.56458 15.0601188,14.7225 14.865625,14.7225 M10.6505367,7.989045 C11.8481531,7.989045 12.8188602,8.9580675 12.8188602,10.1530425 C12.8188602,11.34837 11.8481531,12.3173925 10.6505367,12.3173925 C9.45327266,12.3173925 8.48256563,11.34837 8.48256563,10.1530425 C8.48256563,8.9580675 9.45327266,7.989045 10.6505367,7.989045 M13.45625,5.91 L14.5132813,5.91 C14.707775,5.91 14.865625,6.06792 14.865625,6.2625 L14.865625,7.32 C14.865625,7.51458 14.707775,7.6725 14.5132813,7.6725 L13.45625,7.6725 C13.2617563,7.6725 13.1039063,7.51458 13.1039063,7.32 L13.1039063,6.2625 C13.1039063,6.06792 13.2617563,5.91 13.45625,5.91 M14.9346844,4.5 L6.34031562,4.5 C5.60004141,4.5 5,5.0988975 5,5.8377375 L5,14.4422625 C5,15.1811025 5.60004141,15.78 6.34031562,15.78 L14.9346844,15.78 C15.6749586,15.78 16.275,15.1811025 16.275,14.4422625 L16.275,5.8377375 C16.275,5.0988975 15.6749586,4.5 14.9346844,4.5" id="Instagram" fill="#6B6B6B"></path>
                    </g>
                </g>
            </g>
        </g>
    </g>
</svg>