<?xml version="1.0" encoding="UTF-8" standalone="no"?>
<svg width="22px" height="22px" viewBox="0 0 22 22" version="1.1" xmlns="http://www.w3.org/2000/svg" xmlns:xlink="http://www.w3.org/1999/xlink">
    <!-- Generator: Sketch 50.2 (55047) - http://www.bohemiancoding.com/sketch -->
    <title>ic_member_center_white</title>
    <desc>Created with Sketch.</desc>
    <defs></defs>
    <g id="Page-1" stroke="none" stroke-width="1" fill="none" fill-rule="evenodd">
        <g id="style-guide" transform="translate(-622.000000, -3648.000000)" fill="#696969">
            <g id="ic_member_center_white" transform="translate(622.000000, 3648.000000)">
                <path d="M17.9081574,16.5069338 C18.7936172,17.4061168 18.7982481,18.6801195 17.9081574,19.6061842 L17.89466,19.6199075 L16.5121704,21.0023971 C15.9474279,21.5671396 15.260701,21.8879134 14.4700614,21.955626 L14.4654306,21.955626 C14.320913,21.9690669 14.1763953,21.9736978 14.0363392,21.9736978 C12.9699359,21.9736978 12.0076712,21.6664214 11.3480519,21.4224526 C9.55459911,20.7584284 7.89188421,19.7599636 6.11627728,18.2870022 C3.97025574,16.488862 2.2806591,14.3293996 1.08346145,11.8626043 L1.08346145,11.8579735 C0.631667443,10.9091496 0.102842556,9.6352034 0.00802228822,8.20747786 C-0.0597468131,7.06890049 0.301857817,6.12939485 1.09249733,5.41087295 C1.1059382,5.40183707 1.11497408,5.39280119 1.12400996,5.38376531 C1.3680352,5.18057095 1.59393221,4.94563807 1.83327008,4.69698194 C2.00512123,4.5209517 2.17674648,4.34029057 2.36644349,4.16403443 C3.32870825,3.24237466 4.5939009,3.24677965 5.52437066,4.17747531 L7.74742308,6.40030183 C8.20362208,6.83859849 8.44759084,7.37182837 8.45199583,7.93657088 C8.45662672,8.51475426 8.21728885,9.06142501 7.75182807,9.52688579 L6.36928193,10.9091496 C6.04856466,11.2255183 5.53340654,11.2255183 5.21732016,10.9091496 C4.9009514,10.5884323 4.9009514,10.0735001 5.21732016,9.75718779 L6.59980982,8.37464165 C6.69909155,8.2707855 6.82107594,8.11260112 6.82107594,7.95001175 C6.81667095,7.79645826 6.70372244,7.65640212 6.6088457,7.56593037 L6.59517893,7.5524895 L4.36800389,5.32503209 C4.0697069,5.02679157 3.80326138,5.03142246 3.48226174,5.33875533 L3.47785675,5.34316032 C3.31526738,5.49225235 3.16148799,5.65043672 2.9989551,5.82206197 C2.74589398,6.08415897 2.47939199,6.35969684 2.17674648,6.61270149 C1.76115246,7.00118786 1.58930132,7.46201775 1.63007573,8.10356524 C1.70688071,9.25575291 2.16307971,10.3400021 2.55179198,11.1578057 C3.64507701,13.4121448 5.19456103,15.391172 7.16455233,17.0401637 C8.79547223,18.3955457 10.3044077,19.3035387 11.9218868,19.9000198 C12.8931874,20.2613985 13.6388169,20.3968237 14.3389847,20.338147 C14.7502302,20.3020035 15.0753525,20.14845 15.3690186,19.8548404 L16.7471033,18.4766992 C17.1130564,18.0882128 16.9277644,17.8171364 16.7561391,17.6455112 C16.7515082,17.6410497 16.7424724,17.6364188 16.7380674,17.6273829 C16.5121704,17.3880451 16.2772375,17.1531122 16.0241764,16.9091434 C15.897787,16.7824717 15.7621358,16.6516773 15.6310591,16.520657 L14.5287382,15.4180538 C14.4157897,15.3051053 14.2532003,15.1743109 14.090611,15.1743109 C13.9277957,15.1743109 13.7605754,15.3097362 13.6522578,15.4180538 C13.5346784,15.5356332 13.4173249,15.6529866 13.2999714,15.7659352 C12.956495,16.1047807 12.6310904,16.4211494 12.3240399,16.7690308 L12.2922449,16.8005999 C11.786405,17.3022042 11.2713034,17.1304095 11.0996781,17.0716763 C11.0816064,17.0672713 11.0634782,17.0626404 11.0454064,17.0536045 C10.3271104,16.7599949 9.65382437,16.3444009 8.85414898,15.7118893 C8.84974398,15.7118893 8.84974398,15.7072584 8.8451131,15.7072584 C8.05006859,15.0613624 7.36774669,14.4061481 6.76239919,13.7103854 C6.46415867,13.3715399 6.50035867,12.8564382 6.83920417,12.5628286 C7.17804968,12.2645316 7.69315132,12.3007316 7.98676095,12.6395771 C8.5334317,13.2632222 9.14775861,13.8504415 9.8662805,14.4377172 C10.4173562,14.8714395 10.8918529,15.1833468 11.3571443,15.4092438 C11.6191848,15.129075 11.8903177,14.8623471 12.1524147,14.6049375 C12.2653632,14.491989 12.3827167,14.3790405 12.4956652,14.266092 C12.9655309,13.7961697 13.5122017,13.547796 14.0815751,13.547796 C14.6463176,13.547796 15.1973933,13.7961697 15.6672591,14.266092 L16.76958,15.3684129 C16.8962517,15.4950282 17.0226411,15.621474 17.1490305,15.7434584 C17.4020916,15.9874272 17.6597272,16.2404883 17.9081574,16.5069338 Z M17.5873836,10.9815495 C17.6641321,11.4242512 17.3661175,11.8445326 16.9231335,11.9212811 C16.8781235,11.930317 16.8328876,11.9347784 16.7877082,11.9347784 C16.3992219,11.9347784 16.0557455,11.6547791 15.9880328,11.2570874 C15.7667667,9.9468848 15.1431216,8.74968715 14.1945236,7.80086325 C13.2456997,6.85209584 12.048502,6.2286201 10.73813,6.00735399 C10.2953719,5.93037958 9.99730077,5.51038058 10.0741057,5.06762245 C10.1508543,4.62486432 10.5711356,4.3266238 11.0138373,4.40337231 C12.6628854,4.68354107 14.1627286,5.46073971 15.3418545,6.64427059 C16.5302421,7.83706325 17.3072149,9.33696288 17.5873836,10.9815495 Z M21.9879702,10.7827602 C22.0647187,11.2255183 21.7664782,11.6457432 21.3146842,11.7179173 C21.2694483,11.7269532 21.2242125,11.7315841 21.1792025,11.7315841 C20.7905467,11.7315841 20.4472397,11.4514153 20.3795271,11.0538931 C19.9817789,8.69541539 18.8659607,6.54498886 17.1580664,4.83709456 C15.450398,3.12942615 13.2999714,2.01801289 10.9414938,1.61585975 C10.4987356,1.53905477 10.2004951,1.11882987 10.2772436,0.67607174 C10.3542745,0.233313612 10.7742735,-0.0647010113 11.2170316,0.0120474959 C13.9097239,0.468246496 16.3630219,1.74247502 18.3103105,3.68953778 C20.2575427,5.63676995 21.5315453,8.09006789 21.9879702,10.7827602 Z" id="ic_call_white"></path>
            </g>
        </g>
    </g>
</svg>